<mxfile host="app.diagrams.net" modified="2024-04-25T07:46:23.350Z" agent="Mozilla/5.0 (Windows NT 10.0; Win64; x64) AppleWebKit/537.36 (KHTML, like Gecko) Chrome/123.0.0.0 Safari/537.36" etag="PpgNcoqWyK3yqOlaEvZ5" version="24.3.0" type="device">
  <diagram id="f106602c-feb2-e66a-4537-3a34d633f6aa" name="Page-1">
    <mxGraphModel dx="3019" dy="1214" grid="1" gridSize="10" guides="1" tooltips="1" connect="1" arrows="1" fold="1" page="1" pageScale="1" pageWidth="1169" pageHeight="827" background="none" math="0" shadow="0">
      <root>
        <mxCell id="0" />
        <mxCell id="1" parent="0" />
        <mxCell id="Lif8JBEafslfNm7ranTe-3" value="Multiple&lt;br&gt;Clients&lt;br&gt;API Requests&lt;br&gt;" style="rounded=1;absoluteArcSize=1;arcSize=2;html=1;strokeColor=none;gradientColor=none;shadow=0;dashed=0;fontSize=12;fontColor=#9E9E9E;align=left;verticalAlign=top;spacing=10;spacingTop=-4;fillColor=#F1F8E9;" parent="1" vertex="1">
          <mxGeometry x="-100" y="220" width="90" height="230" as="geometry" />
        </mxCell>
        <mxCell id="Lif8JBEafslfNm7ranTe-4" value="Emily" style="fillColor=#4DA1F5;strokeColor=none;shadow=1;gradientColor=none;fontSize=14;align=left;spacingLeft=50;fontColor=#ffffff;html=1;" parent="1" vertex="1">
          <mxGeometry x="180" y="120" width="650" height="40" as="geometry" />
        </mxCell>
        <mxCell id="Lif8JBEafslfNm7ranTe-6" value="" style="strokeColor=#dddddd;fillColor=#ffffff;shadow=1;strokeWidth=1;rounded=1;absoluteArcSize=1;arcSize=2;labelPosition=center;verticalLabelPosition=middle;align=center;verticalAlign=bottom;spacingLeft=0;fontColor=#999999;fontSize=12;whiteSpace=wrap;spacingBottom=2;html=1;" parent="1" vertex="1">
          <mxGeometry x="-90" y="280" width="70" height="70" as="geometry" />
        </mxCell>
        <mxCell id="Lif8JBEafslfNm7ranTe-7" value="" style="dashed=0;connectable=0;html=1;fillColor=#757575;strokeColor=none;shape=mxgraph.gcp2.mobile_devices;part=1;" parent="Lif8JBEafslfNm7ranTe-6" vertex="1">
          <mxGeometry x="0.5" width="50" height="36.5" relative="1" as="geometry">
            <mxPoint x="-25" y="16.75" as="offset" />
          </mxGeometry>
        </mxCell>
        <mxCell id="Lif8JBEafslfNm7ranTe-9" value="" style="strokeColor=#dddddd;fillColor=#ffffff;shadow=1;strokeWidth=1;rounded=1;absoluteArcSize=1;arcSize=2;labelPosition=center;verticalLabelPosition=middle;align=center;verticalAlign=bottom;spacingLeft=0;fontColor=#999999;fontSize=12;whiteSpace=wrap;spacingBottom=2;html=1;" parent="1" vertex="1">
          <mxGeometry x="-90" y="369.5" width="70" height="70" as="geometry" />
        </mxCell>
        <mxCell id="Lif8JBEafslfNm7ranTe-10" value="" style="dashed=0;connectable=0;html=1;fillColor=#757575;strokeColor=none;shape=mxgraph.gcp2.laptop;part=1;" parent="Lif8JBEafslfNm7ranTe-9" vertex="1">
          <mxGeometry x="0.5" width="50" height="33" relative="1" as="geometry">
            <mxPoint x="-25" y="18.5" as="offset" />
          </mxGeometry>
        </mxCell>
        <mxCell id="E62bnQLQM5UrplGOeL8i-1" value="&lt;b&gt;Frontend&lt;/b&gt;" style="fillColor=#f8cecc;strokeColor=#b85450;shadow=0;fontSize=14;align=left;spacing=10;9E9E9E;verticalAlign=top;spacingTop=-4;fontStyle=0;spacingLeft=40;html=1;" vertex="1" parent="1">
          <mxGeometry x="1090" y="200" width="280" height="331" as="geometry" />
        </mxCell>
        <mxCell id="E62bnQLQM5UrplGOeL8i-2" value="" style="shape=mxgraph.gcp2.google_cloud_platform;fillColor=#F6F6F6;strokeColor=none;shadow=0;gradientColor=none;" vertex="1" parent="E62bnQLQM5UrplGOeL8i-1">
          <mxGeometry width="23" height="20" relative="1" as="geometry">
            <mxPoint x="20" y="10" as="offset" />
          </mxGeometry>
        </mxCell>
        <mxCell id="E62bnQLQM5UrplGOeL8i-3" value="" style="strokeColor=#dddddd;shadow=1;strokeWidth=1;rounded=1;absoluteArcSize=1;arcSize=2;" vertex="1" parent="E62bnQLQM5UrplGOeL8i-1">
          <mxGeometry x="40" y="60" width="120" height="60" as="geometry" />
        </mxCell>
        <mxCell id="E62bnQLQM5UrplGOeL8i-4" value="App&#xa;Engine" style="editableCssRules=.*;html=1;fontColor=#999999;shape=image;verticalLabelPosition=middle;verticalAlign=middle;labelPosition=right;align=left;spacingLeft=20;part=1;points=[];imageAspect=0;image=data:image/svg+xml,PHN2ZyB4bWxucz0iaHR0cDovL3d3dy53My5vcmcvMjAwMC9zdmciIHhtbG5zOnY9Imh0dHBzOi8vdmVjdGEuaW8vbmFubyIgd2lkdGg9IjIwIiBoZWlnaHQ9IjE2LjAyMDAwMDQ1Nzc2MzY3MiIgZmlsbC1ydWxlPSJldmVub2RkIiB2aWV3Qm94PSI4Ljk0MDY5NjcxNjMwODU5NGUtOCAwIDIwIDE2LjAyMDAwMDQ1Nzc2MzY3MiI+JiN4YTsJPHN0eWxlIHR5cGU9InRleHQvY3NzIj4mI3hhOwkuc3Qwe2ZpbGw6IzQyODVmNDt9JiN4YTsJLnN0MXtmaWxsOiNhZWNiZmE7fSYjeGE7CS5zdDJ7ZmlsbDojNjY5ZGY2O30mI3hhOwk8L3N0eWxlPiYjeGE7CTxwYXRoIGNsYXNzPSJzdDAiIGQ9Ik0xMi4zIDcuMjZsLTEuMjIgMS4yMkExLjcxIDEuNzEgMCAwIDEgMTAgMTEuNDlhMS43NCAxLjc0IDAgMCAxLTEuMzMtLjY0bC0xLjIyIDEuMjJhMy40MyAzLjQzIDAgMCAwIDUuOTg0LTEuMzgxQTMuNDMgMy40MyAwIDAgMCAxMi4zIDcuMjZ6Ii8+JiN4YTsJPHBhdGggY2xhc3M9InN0MSIgZD0iTTEwIDMuNTJhNi4yNSA2LjI1IDAgMCAwIDAgMTIuNSA2LjI1IDYuMjUgMCAwIDAgMC0xMi41bTAgMTAuNzRhNC40NSA0LjQ1IDAgMCAxLTMuMTU3LTcuNTk3QTQuNDUgNC40NSAwIDAgMSAxNC40NCA5LjgyIDQuNDQgNC40NCAwIDAgMSAxMCAxNC4yNiIvPiYjeGE7CTxwYXRoIGNsYXNzPSJzdDIiIGQ9Ik0xOS42MiA5LjE2bC0yLjU2LS44MWE3LjEgNy4xIDAgMCAxIC4xNyAxLjUzIDcuNjIgNy42MiAwIDAgMS0uMDggMS4wOGgyLjQ3YS40NC40NCAwIDAgMCAuMzgtLjQydi0xYS40NC40NCAwIDAgMC0uMzgtLjQyTTEwIDIuNzhhNy40OCA3LjQ4IDAgMCAxIDEuNS4xNUwxMC41OC4zOGMtLjA3LS4yMi0uMjEtLjM4LS40Mi0uMzhoLS4zOGEuNDUuNDUgMCAwIDAtLjQyLjM4bC0uOCAyLjU0QTcuNjQgNy42NCAwIDAgMSAxMCAyLjc4bS03LjIzIDcuMWE3LjEgNy4xIDAgMCAxIC4xNy0xLjUzbC0yLjU2LjgxYS40NC40NCAwIDAgMC0uMzguNDJ2MWEuNDQuNDQgMCAwIDAgLjM4LjQyaDIuNDdhNy42MiA3LjYyIDAgMCAxLS4wOC0xLjA4Ii8+JiN4YTsJPHBhdGggY2xhc3M9InN0MSIgZD0iTTEwIDcuMjZhMi41IDIuNSAwIDEgMCAwIDUgMi41IDIuNSAwIDEgMCAwLTV6bTAgMy43NWExLjI1IDEuMjUgMCAxIDEgMC0yLjUgMS4yNSAxLjI1IDAgMCAxIDEuMjUgMS4yNUExLjI1IDEuMjUgMCAwIDEgMTAgMTEuMDJ6Ii8+JiN4YTs8L3N2Zz4=;" vertex="1" parent="E62bnQLQM5UrplGOeL8i-3">
          <mxGeometry width="30" height="24" relative="1" as="geometry">
            <mxPoint x="15" y="18" as="offset" />
          </mxGeometry>
        </mxCell>
        <mxCell id="E62bnQLQM5UrplGOeL8i-5" value="&lt;b&gt;Backend&lt;/b&gt;" style="fillColor=#fff2cc;strokeColor=#d6b656;shadow=0;fontSize=14;align=left;spacing=10;9E9E9E;verticalAlign=top;spacingTop=-4;fontStyle=0;spacingLeft=40;html=1;" vertex="1" parent="1">
          <mxGeometry x="460" y="190" width="290" height="331" as="geometry" />
        </mxCell>
        <mxCell id="E62bnQLQM5UrplGOeL8i-6" value="" style="shape=mxgraph.gcp2.google_cloud_platform;fillColor=#F6F6F6;strokeColor=none;shadow=0;gradientColor=none;" vertex="1" parent="E62bnQLQM5UrplGOeL8i-5">
          <mxGeometry width="23" height="20" relative="1" as="geometry">
            <mxPoint x="20" y="10" as="offset" />
          </mxGeometry>
        </mxCell>
        <mxCell id="E62bnQLQM5UrplGOeL8i-9" value="" style="strokeColor=#dddddd;shadow=1;strokeWidth=1;rounded=1;absoluteArcSize=1;arcSize=2;" vertex="1" parent="E62bnQLQM5UrplGOeL8i-5">
          <mxGeometry x="10" y="60" width="130" height="60" as="geometry" />
        </mxCell>
        <mxCell id="E62bnQLQM5UrplGOeL8i-10" value="Cloud&#xa;Functions" style="editableCssRules=.*;html=1;fontColor=#999999;shape=image;verticalLabelPosition=middle;verticalAlign=middle;labelPosition=right;align=left;spacingLeft=20;part=1;points=[];imageAspect=0;image=data:image/svg+xml,PHN2ZyB4bWxucz0iaHR0cDovL3d3dy53My5vcmcvMjAwMC9zdmciIHhtbG5zOnY9Imh0dHBzOi8vdmVjdGEuaW8vbmFubyIgd2lkdGg9IjIwIiBoZWlnaHQ9IjE5Ljk4OTk5OTc3MTExODE2NCIgdmlld0JveD0iMCAwIDIwIDE5Ljk4OTk5OTc3MTExODE2NCI+JiN4YTsJPHN0eWxlIHR5cGU9InRleHQvY3NzIj4mI3hhOwkuc3Qwe2ZpbGw6IzQyODVmNDt9JiN4YTsJLnN0MXtmaWxsOiM2NjlkZjY7fSYjeGE7CS5zdDJ7ZmlsbDojYWVjYmZhO30mI3hhOwk8L3N0eWxlPiYjeGE7CTxwYXRoIGNsYXNzPSJzdDEiIGQ9Ik0zIDMuOTlMMCA2LjQydjcuMTNsMyAyLjQ0eiIvPiYjeGE7CTxwYXRoIGNsYXNzPSJzdDAiIGQ9Ik0zIDMuOTlsLTMgNCAzLTJ6bS0zIDhsMyA0di0yeiIvPiYjeGE7CTxwYXRoIGNsYXNzPSJzdDIiIGQ9Ik0wIDE1Ljk5bDQgNCAyLTItNi02em0uMDEtOEw1Ljk5IDJsLTItMkwwIDMuOTl6Ii8+JiN4YTsJPHBhdGggY2xhc3M9InN0MSIgZD0iTTE3IDE2bDMtMi40MlY2LjQ0TDE3IDR6Ii8+JiN4YTsJPHBhdGggY2xhc3M9InN0MCIgZD0iTTE3IDE2bDMtNC0zIDJ6bTMtOGwtMy00djJ6Ii8+JiN4YTsJPGcgY2xhc3M9InN0MiI+JiN4YTsJCTxwYXRoIGQ9Ik0yMCA0bC00LTQtMiAyIDYgNnptLS4wMSA4bC01Ljk4IDUuOTkgMiAyTDIwIDE2eiIvPiYjeGE7CQk8Y2lyY2xlIGN4PSI2IiBjeT0iOS45OSIgcj0iMSIvPiYjeGE7CQk8Y2lyY2xlIGN4PSIxMCIgY3k9IjkuOTkiIHI9IjEiLz4mI3hhOwkJPGNpcmNsZSBjeD0iMTMuOTkiIGN5PSI5Ljk5IiByPSIxIi8+JiN4YTsJPC9nPiYjeGE7PC9zdmc+;" vertex="1" parent="E62bnQLQM5UrplGOeL8i-9">
          <mxGeometry width="30" height="24" relative="1" as="geometry">
            <mxPoint x="15" y="18" as="offset" />
          </mxGeometry>
        </mxCell>
        <mxCell id="E62bnQLQM5UrplGOeL8i-11" value="&lt;b&gt;Storage&lt;/b&gt;" style="fillColor=#d5e8d4;strokeColor=#82b366;shadow=0;fontSize=14;align=left;spacing=10;9E9E9E;verticalAlign=top;spacingTop=-4;fontStyle=0;spacingLeft=40;html=1;" vertex="1" parent="1">
          <mxGeometry x="80" y="580" width="280" height="331" as="geometry" />
        </mxCell>
        <mxCell id="E62bnQLQM5UrplGOeL8i-12" value="" style="shape=mxgraph.gcp2.google_cloud_platform;fillColor=#F6F6F6;strokeColor=none;shadow=0;gradientColor=none;" vertex="1" parent="E62bnQLQM5UrplGOeL8i-11">
          <mxGeometry width="23" height="20" relative="1" as="geometry">
            <mxPoint x="20" y="10" as="offset" />
          </mxGeometry>
        </mxCell>
        <mxCell id="E62bnQLQM5UrplGOeL8i-15" value="" style="strokeColor=#dddddd;shadow=1;strokeWidth=1;rounded=1;absoluteArcSize=1;arcSize=2;" vertex="1" parent="E62bnQLQM5UrplGOeL8i-11">
          <mxGeometry x="30" y="90" width="120" height="60" as="geometry" />
        </mxCell>
        <mxCell id="E62bnQLQM5UrplGOeL8i-16" value="Cloud&#xa;Storage" style="editableCssRules=.*;html=1;fontColor=#999999;shape=image;verticalLabelPosition=middle;verticalAlign=middle;labelPosition=right;align=left;spacingLeft=20;part=1;points=[];imageAspect=0;image=data:image/svg+xml,PHN2ZyB4bWxucz0iaHR0cDovL3d3dy53My5vcmcvMjAwMC9zdmciIHhtbG5zOnY9Imh0dHBzOi8vdmVjdGEuaW8vbmFubyIgd2lkdGg9IjIwIiBoZWlnaHQ9IjE2IiB2aWV3Qm94PSIwIDAgMjAgMTYiPiYjeGE7CTxzdHlsZSB0eXBlPSJ0ZXh0L2NzcyI+JiN4YTsJLnN0MHtmaWxsOiM0Mjg1ZjQ7fSYjeGE7CS5zdDF7ZmlsbDojNjY5ZGY2O30mI3hhOwkuc3Qye2ZpbGw6I2FlY2JmYTt9JiN4YTsJLnN0M3tmaWxsOiNmZmY7fSYjeGE7CTwvc3R5bGU+JiN4YTsJPHBhdGggY2xhc3M9InN0MiIgZD0iTTAgMGgyMHY3SDB6Ii8+JiN4YTsJPHBhdGggY2xhc3M9InN0MSIgZD0iTTE4IDBoMnY3aC0yeiIvPiYjeGE7CTxwYXRoIGNsYXNzPSJzdDAiIGQ9Ik0xOCA3bDItN2gtMnoiLz4mI3hhOwk8cGF0aCBjbGFzcz0ic3QxIiBkPSJNMCAwaDJ2N0gweiIvPiYjeGE7CTxnIGNsYXNzPSJzdDMiPiYjeGE7CQk8cGF0aCBkPSJNNCAzaDZ2MUg0eiIvPiYjeGE7CQk8cmVjdCB4PSIxMyIgeT0iMiIgd2lkdGg9IjMiIGhlaWdodD0iMyIgcng9IjEuNSIvPiYjeGE7CTwvZz4mI3hhOwk8cGF0aCBjbGFzcz0ic3QyIiBkPSJNMCA5aDIwdjdIMHoiLz4mI3hhOwk8cGF0aCBjbGFzcz0ic3QxIiBkPSJNMTggOWgydjdoLTJ6Ii8+JiN4YTsJPHBhdGggY2xhc3M9InN0MCIgZD0iTTE4IDE2bDItN2gtMnoiLz4mI3hhOwk8cGF0aCBjbGFzcz0ic3QxIiBkPSJNMCA5aDJ2N0gweiIvPiYjeGE7CTxnIGNsYXNzPSJzdDMiPiYjeGE7CQk8cGF0aCBkPSJNNCAxMmg2djFINHoiLz4mI3hhOwkJPHJlY3QgeD0iMTMiIHk9IjExIiB3aWR0aD0iMyIgaGVpZ2h0PSIzIiByeD0iMS41Ii8+JiN4YTsJPC9nPiYjeGE7PC9zdmc+;" vertex="1" parent="E62bnQLQM5UrplGOeL8i-15">
          <mxGeometry width="30" height="24" relative="1" as="geometry">
            <mxPoint x="15" y="18" as="offset" />
          </mxGeometry>
        </mxCell>
        <mxCell id="E62bnQLQM5UrplGOeL8i-32" value="&lt;b&gt;AI&lt;/b&gt;" style="fillColor=#f5f5f5;strokeColor=#666666;shadow=0;fontSize=14;align=left;spacing=10;9E9E9E;verticalAlign=top;spacingTop=-4;fontStyle=0;spacingLeft=40;html=1;fontColor=#333333;" vertex="1" parent="1">
          <mxGeometry x="90" y="200" width="280" height="331" as="geometry" />
        </mxCell>
        <mxCell id="E62bnQLQM5UrplGOeL8i-33" value="" style="shape=mxgraph.gcp2.google_cloud_platform;fillColor=#F6F6F6;strokeColor=none;shadow=0;gradientColor=none;" vertex="1" parent="E62bnQLQM5UrplGOeL8i-32">
          <mxGeometry width="23" height="20" relative="1" as="geometry">
            <mxPoint x="20" y="10" as="offset" />
          </mxGeometry>
        </mxCell>
        <mxCell id="E62bnQLQM5UrplGOeL8i-36" value="" style="group" vertex="1" connectable="0" parent="E62bnQLQM5UrplGOeL8i-32">
          <mxGeometry x="30" y="40" width="130" height="60" as="geometry" />
        </mxCell>
        <mxCell id="E62bnQLQM5UrplGOeL8i-37" value="" style="strokeColor=#dddddd;shadow=1;strokeWidth=1;rounded=1;absoluteArcSize=1;arcSize=2;" vertex="1" parent="E62bnQLQM5UrplGOeL8i-36">
          <mxGeometry width="130" height="60" as="geometry" />
        </mxCell>
        <mxCell id="E62bnQLQM5UrplGOeL8i-38" value="Speech-to-Text" style="sketch=0;html=1;verticalAlign=top;labelPosition=center;verticalLabelPosition=bottom;align=center;spacingTop=-6;fontSize=11;fontStyle=1;fontColor=#999999;shape=image;aspect=fixed;imageAspect=0;image=data:image/svg+xml,PHN2ZyB4bWxucz0iaHR0cDovL3d3dy53My5vcmcvMjAwMC9zdmciIHhtbG5zOnY9Imh0dHBzOi8vdmVjdGEuaW8vbmFubyIgd2lkdGg9IjE4IiBoZWlnaHQ9IjIwIiB2aWV3Qm94PSIwIDAgMTggMjAiPiYjeGE7CTxzdHlsZSB0eXBlPSJ0ZXh0L2NzcyI+JiN4YTsJLnN0MHtmaWxsOiM0Mjg1ZjQ7fSYjeGE7CS5zdDF7ZmlsbDojNjY5ZGY2O30mI3hhOwk8L3N0eWxlPiYjeGE7CTxwYXRoIGNsYXNzPSJzdDAiIGQ9Ik04IDBoMnYyMEg4ek00IDZoMnY4SDR6bTggMGgydjhoLTJ6TTAgM2gydjE0SDB6bTE2IDBoMnYxNGgtMnoiLz4mI3hhOwk8cGF0aCBjbGFzcz0ic3QxIiBkPSJNOCAwaDJ2MTBIOHpNNCA2aDJ2NEg0em04IDBoMnY0aC0yek0wIDNoMnY3SDB6bTE2IDBoMnY3aC0yeiIvPiYjeGE7PC9zdmc+;" vertex="1" parent="E62bnQLQM5UrplGOeL8i-36">
          <mxGeometry x="20" y="9" width="40" height="44.21" as="geometry" />
        </mxCell>
        <mxCell id="E62bnQLQM5UrplGOeL8i-42" value="" style="edgeStyle=orthogonalEdgeStyle;fontSize=12;html=1;endArrow=blockThin;endFill=1;rounded=0;strokeWidth=2;endSize=4;startSize=4;dashed=0;strokeColor=#4284F3;curved=1;" edge="1" parent="1" source="Lif8JBEafslfNm7ranTe-3" target="E62bnQLQM5UrplGOeL8i-37">
          <mxGeometry width="100" relative="1" as="geometry">
            <mxPoint x="240" y="420" as="sourcePoint" />
            <mxPoint x="340" y="420" as="targetPoint" />
          </mxGeometry>
        </mxCell>
        <mxCell id="E62bnQLQM5UrplGOeL8i-51" style="edgeStyle=orthogonalEdgeStyle;curved=1;rounded=0;orthogonalLoop=1;jettySize=auto;html=1;dashed=0;strokeColor=#4284F3;strokeWidth=2;align=center;verticalAlign=middle;fontFamily=Helvetica;fontSize=12;fontColor=default;labelBackgroundColor=default;startSize=4;endArrow=blockThin;endFill=1;endSize=4;" edge="1" parent="1" source="E62bnQLQM5UrplGOeL8i-37" target="E62bnQLQM5UrplGOeL8i-15">
          <mxGeometry relative="1" as="geometry" />
        </mxCell>
        <mxCell id="E62bnQLQM5UrplGOeL8i-52" value="&lt;b&gt;AI&lt;/b&gt;" style="fillColor=#f5f5f5;strokeColor=#666666;shadow=0;fontSize=14;align=left;spacing=10;9E9E9E;verticalAlign=top;spacingTop=-4;fontStyle=0;spacingLeft=40;html=1;fontColor=#333333;" vertex="1" parent="1">
          <mxGeometry x="440" y="600" width="390" height="331" as="geometry" />
        </mxCell>
        <mxCell id="E62bnQLQM5UrplGOeL8i-53" value="" style="shape=mxgraph.gcp2.google_cloud_platform;fillColor=#F6F6F6;strokeColor=none;shadow=0;gradientColor=none;" vertex="1" parent="E62bnQLQM5UrplGOeL8i-52">
          <mxGeometry width="23" height="20" relative="1" as="geometry">
            <mxPoint x="20" y="10" as="offset" />
          </mxGeometry>
        </mxCell>
        <mxCell id="E62bnQLQM5UrplGOeL8i-59" value="" style="group" vertex="1" connectable="0" parent="E62bnQLQM5UrplGOeL8i-52">
          <mxGeometry x="20" y="70" width="120" height="80" as="geometry" />
        </mxCell>
        <mxCell id="E62bnQLQM5UrplGOeL8i-60" value="" style="strokeColor=#dddddd;shadow=1;strokeWidth=1;rounded=1;absoluteArcSize=1;arcSize=2;" vertex="1" parent="E62bnQLQM5UrplGOeL8i-59">
          <mxGeometry width="120" height="80" as="geometry" />
        </mxCell>
        <mxCell id="E62bnQLQM5UrplGOeL8i-61" value="Vertex AI" style="sketch=0;html=1;verticalAlign=top;labelPosition=center;verticalLabelPosition=bottom;align=center;spacingTop=-6;fontSize=11;fontStyle=1;fontColor=#999999;shape=image;aspect=fixed;imageAspect=0;image=data:image/svg+xml,PHN2ZyB4bWxucz0iaHR0cDovL3d3dy53My5vcmcvMjAwMC9zdmciIGlkPSJzdmc1IiB2ZXJzaW9uPSIxLjEiIHZpZXdCb3g9IjAgMCAyMzkuNzA4MjUgMjc0Ljg2MzI4IiBoZWlnaHQ9IjI3NC44NjMyOG1tIiB3aWR0aD0iMjM5LjcwODI1bW0iPiYjeGE7ICAmI3hhOyAgPGRlZnMgaWQ9ImRlZnMyIi8+JiN4YTsgIDxnIHRyYW5zZm9ybT0idHJhbnNsYXRlKC02Ni42ODYzNjEsNjAuMjU5NzY2KSIgaWQ9ImxheWVyMSI+JiN4YTsgICAgPGcgc3R5bGU9Im9wYWNpdHk6MC45OSIgaWQ9InBhdGg4NjkiLz4mI3hhOyAgICA8ZyBzdHlsZT0ib3BhY2l0eTowLjk5IiBpZD0icGF0aDg2OS0yIi8+JiN4YTsgICAgPGcgc3R5bGU9Im9wYWNpdHk6MC45OSIgaWQ9InBhdGg4NjktMyIvPiYjeGE7ICAgIDxnIHN0eWxlPSJvcGFjaXR5OjAuOTkiIGlkPSJwYXRoODY5LTEiLz4mI3hhOyAgICA8ZyBzdHlsZT0ib3BhY2l0eTowLjk5IiBpZD0icGF0aDg2OS04Ii8+JiN4YTsgICAgPGcgc3R5bGU9Im9wYWNpdHk6MC45OSIgaWQ9InBhdGg4NzEiPiYjeGE7ICAgICAgPHBhdGggaWQ9InBhdGgzMzU3IiBkPSJtIDc3LjE4Njc3NSwxMTAuODgyNTIgOTQuMjM5Njk1LDY5Ljc0NTc1IiBzdHlsZT0iY29sb3I6IzAwMDAwMDtmaWxsOiMwMDgwMDA7c3Ryb2tlLXdpZHRoOjIxO3N0cm9rZS1saW5lY2FwOnJvdW5kOy1pbmtzY2FwZS1zdHJva2U6bm9uZSIvPiYjeGE7ICAgIDwvZz4mI3hhOyAgICA8ZyBzdHlsZT0ib3BhY2l0eTowLjk5IiBpZD0icGF0aDg3MyIvPiYjeGE7ICAgIDxwYXRoIGQ9Im0gMTUzLjA4MTIsMTA5LjAzNTY4IGMgMCw2LjEyMDQ3IC00Ljk2MTYyLDExLjA4MjA5IC0xMS4wODIwOSwxMS4wODIwOSAtNi4xMjA0NywwIC0xMS4wODIwOCwtNC45NjE2MiAtMTEuMDgyMDgsLTExLjA4MjA5IDAsLTYuMTIwNDYgNC45NjE2MiwtMTEuMDgyMDgyIDExLjA4MjA4LC0xMS4wODIwODcgNi4xMjA0NywtMTBlLTcgMTEuMDgyMDksNC45NjE2MTcgMTEuMDgyMDksMTEuMDgyMDg3IHogbSAwLC05Mi41MTMzODEgYyAwLDYuMTIwNDY5IC00Ljk2MTYyLDExLjA4MjA5IC0xMS4wODIwOSwxMS4wODIwODkgLTYuMTIwNDcsLTVlLTYgLTExLjA4MjA4LC00Ljk2MTYyNCAtMTEuMDgyMDgsLTExLjA4MjA4OSAwLC02LjEyMDQ2NSA0Ljk2MTYxLC0xMS4wODIwODQ2IDExLjA4MjA4LC0xMS4wODIwODk2IDYuMTIwNDcsLTZlLTcgMTEuMDgyMDksNC45NjE2MjA2IDExLjA4MjA5LDExLjA4MjA4OTYgeiBtIDAsLTMyLjkyMTY4MyBjIDAsNi4xMjA0NjkgLTQuOTYxNjIsMTEuMDgyMDkwNSAtMTEuMDgyMDksMTEuMDgyMDg5OSAtNi4xMjA0NywtNWUtNiAtMTEuMDgyMDgsLTQuOTYxNjIzOSAtMTEuMDgyMDgsLTExLjA4MjA4OTkgMCwtNi4xMjA0NjUgNC45NjE2MSwtMTEuMDgyMDg0IDExLjA4MjA4LC0xMS4wODIwODkgNi4xMjA0NywtMTBlLTcgMTEuMDgyMDksNC45NjE2MiAxMS4wODIwOSwxMS4wODIwODkgeiBNIDEwOC43NDE4MSw3Ni43MTgwMSBjIDAsNi4xMjA0NjkgLTQuOTYxNjIsMTEuMDgyMDg5IC0xMS4wODIwODksMTEuMDgyMDg5IC02LjEyMDQ2OSwwIC0xMS4wODIwODksLTQuOTYxNjIgLTExLjA4MjA4OSwtMTEuMDgyMDg5IDAsLTYuMTIwNDY5IDQuOTYxNjIsLTExLjA4MjA4OSAxMS4wODIwODksLTExLjA4MjA4OSA2LjEyMDQ2OSwwIDExLjA4MjA4OSw0Ljk2MTYyIDExLjA4MjA4OSwxMS4wODIwODkgeiBtIDAsLTMyLjY4MDYyNiBjIDAsNi4xMjA0NjkgLTQuOTYxNjIsMTEuMDgyMDg5IC0xMS4wODIwODksMTEuMDgyMDg5IC02LjEyMDQ2OSwwIC0xMS4wODIwODksLTQuOTYxNjIgLTExLjA4MjA4OSwtMTEuMDgyMDg5IDAsLTYuMTIwNDY5IDQuOTYxNjIsLTExLjA4MjA4OSAxMS4wODIwODksLTExLjA4MjA4OSA2LjEyMDQ2OSwwIDExLjA4MjA4OSw0Ljk2MTYyIDExLjA4MjA4OSwxMS4wODIwODkgeiBtIDAsLTMyLjY3ODI0MyBjIDAsNi4xMjA0NjkgLTQuOTYxNjIsMTEuMDgyMDkgLTExLjA4MjA4OSwxMS4wODIwOSAtNi4xMjA0NjksMCAtMTEuMDgyMDksLTQuOTYxNjIxIC0xMS4wODIwODksLTExLjA4MjA5IDAsLTYuMTIwNDY4OCA0Ljk2MTYyLC0xMS4wODIwODkwNyAxMS4wODIwODksLTExLjA4MjA4OTA3IDYuMTIwNDY5LDAgMTEuMDgyMDg5LDQuOTYxNjIwMjcgMTEuMDgyMDg5LDExLjA4MjA4OTA3IHogTSAxNDIsMzcuNzc5Mjk3IGMgLTUuNzk4OTksMCAtMTAuNSw0LjcwMTAxIC0xMC41LDEwLjUgdiAyOC45OTQxNCBjIDAsNS43OTg5OSA0LjcwMTAxLDEwLjUgMTAuNSwxMC41IDUuNzk4OTksMCAxMC41LC00LjcwMTAxIDEwLjUsLTEwLjUgdiAtMjguOTk0MTQgYyAwLC01Ljc5ODk5IC00LjcwMTAxLC0xMC41IC0xMC41LC0xMC41IHogbSAtOC45ZS00LDEwLjUwMDM3NyBWIDc3LjI3MzY5MSBNIDk3LjY2MDE1NiwtNjAuMjU5NzY2IGMgLTUuNzk4OTksMCAtMTAuNSw0LjcwMTAxIC0xMC41LDEwLjUgdiAyOC45OTQxNDEgYyAwLDUuNzk4OTkgNC43MDEwMSwxMC41IDEwLjUsMTAuNSA1Ljc5ODk5NCwyZS02IDEwLjUwMDAwNCwtNC43MDEwMDkgMTAuNTAwMDA0LC0xMC41IHYgLTI4Ljk5NDE0MSBjIDAsLTUuNzk4OTkxIC00LjcwMTAxLC0xMC41MDAwMDIgLTEwLjUwMDAwNCwtMTAuNSB6IG0gLTQuMzVlLTQsMTAuNDk5NzY1IHYgMjguOTk0MDE3IE0gNzUuNjM0NzY2LDEwMC40OTgwNSBjIC0yLjc1NDE5MSwwLjQxMTQ4IC01LjIzMjExOSwxLjkwMDIxIC02Ljg4ODY3Miw0LjEzODY3IC0zLjQ0ODg3NCw0LjY2MTU3IC0yLjQ2NjAyNCwxMS4yMzYzNSAyLjE5NTMxMiwxNC42ODU1NSBsIDk0LjIzODI4NCw2OS43NDYwOSAxMi43ODYwNCwtMTYuNjY2NTkgLTk0LjUzMjEzNiwtNjkuOTU4NDEgYyAtMi4yMzg2OTksLTEuNjU3MTYgLTUuMDQ0MTAxLC0yLjM1NjkzIC03Ljc5ODgyOCwtMS45NDUzMSB6IiBzdHlsZT0iY29sb3I6IzAwMDAwMDtvcGFjaXR5OjAuOTk7ZmlsbDojYjVjYmY5O2ZpbGwtb3BhY2l0eToxO3N0cm9rZS13aWR0aDoyMTtzdHJva2UtbGluZWNhcDpyb3VuZDtzdHJva2UtbGluZWpvaW46cm91bmQ7LWlua3NjYXBlLXN0cm9rZTpub25lIiBpZD0icGF0aDE4NDAtNSIvPiYjeGE7ICAgIDxwYXRoIGQ9Im0gMTk3LjM5Mjc2LDE0MS45NzM2NiBjIDAsNi4xMjA0NyAtNC45NjE2MiwxMS4wODIwOSAtMTEuMDgyMDksMTEuMDgyMDkgLTYuMTIwNDcsMCAtMTEuMDgyMDksLTQuOTYxNjIgLTExLjA4MjA5LC0xMS4wODIwOSAwLC02LjEyMDQ3IDQuOTYxNjIsLTExLjA4MjA5IDExLjA4MjA5LC0xMS4wODIwOSA2LjEyMDQ3LDAgMTEuMDgyMDksNC45NjE2MiAxMS4wODIwOSwxMS4wODIwOSB6IG0gMCwtOTIuNzI1NTg2IGMgMCw2LjEyMDQ2OSAtNC45NjE2MiwxMS4wODIwOSAtMTEuMDgyMDksMTEuMDgyMDg5IC02LjEyMDQ3LDFlLTYgLTExLjA4MjA5LC00Ljk2MTYyIC0xMS4wODIwOSwtMTEuMDgyMDg5IDAsLTYuMTIwNDcgNC45NjE2MiwtMTEuMDgyMDkxIDExLjA4MjA5LC0xMS4wODIwOSA2LjEyMDQ3LC0xZS02IDExLjA4MjA5LDQuOTYxNjIgMTEuMDgyMDksMTEuMDgyMDkgeiBtIDAsLTMyLjg1NDQ1OCBjIDAsNi4xMjA0NjkgLTQuOTYxNjIsMTEuMDgyMDkgLTExLjA4MjA5LDExLjA4MjA4OSAtNi4xMjA0NywxMGUtNyAtMTEuMDgyMDksLTQuOTYxNjIgLTExLjA4MjA5LC0xMS4wODIwODkgMCwtNi4xMjA0NjkgNC45NjE2MiwtMTEuMDgyMDkwMyAxMS4wODIwOSwtMTEuMDgyMDg5NyA2LjEyMDQ3LC02ZS03IDExLjA4MjA5LDQuOTYxNjIwNyAxMS4wODIwOSwxMS4wODIwODk3IHogbSAxMDAuMDI5MTEsODQuMDA2Nzc0IGMgLTIuNzU1MTcsLTAuNDA1MDA0IC01LjU1ODM4LDAuMzAxMDcgLTcuNzkyOTYsMS45NjI4OSBsIC05NC43NDYxLDcwLjQzNzUgMTIuNTI5MywxNi44NTM1MiA5NC43NDYwOSwtNzAuNDM3NSBjIDQuNjU0MTIsLTMuNDU5NzggNS42MjIxNSwtMTAuMDM3NDggMi4xNjIxMSwtMTQuNjkxNDEgLTEuNjYxMzYsLTIuMjM1NTMgLTQuMTQyODcsLTMuNzE5MzcgLTYuODk4NDQsLTQuMTI1IHogTSAxODYuMzEwNTUsNzAuODY3MTg3IGMgLTUuNzk4OTksMCAtMTAuNSw0LjcwMTAxIC0xMC41LDEwLjUgdiAyOC45OTQxNDMgYyAwLDUuNzk4OTkgNC43MDEwMSwxMC41IDEwLjUsMTAuNSA1Ljc5ODk5LDAgMTAuNSwtNC43MDEwMSAxMC41LC0xMC41IFYgODEuMzY3MTg3IGMgMCwtNS43OTg5OSAtNC43MDEwMSwtMTAuNSAtMTAuNSwtMTAuNSB6IG0gMS4yZS00LDEwLjUwMDgyNyB2IDI4Ljk5NDAxNiIgc3R5bGU9ImNvbG9yOiMwMDAwMDA7b3BhY2l0eTowLjk5O2ZpbGw6Izc2OWVmNTtmaWxsLW9wYWNpdHk6MTtzdHJva2Utd2lkdGg6MjE7c3Ryb2tlLWxpbmVjYXA6cm91bmQ7c3Ryb2tlLWxpbmVqb2luOnJvdW5kOy1pbmtzY2FwZS1zdHJva2U6bm9uZSIgaWQ9InBhdGgxODQwLTMiLz4mI3hhOyAgICA8cGF0aCBkPSJtIDE4Ni4zNDU3LDE3MC42ODE2NCBjIC0xMi4wNDU3LDAgLTIxLjk2MDkzLDkuOTE1MjQgLTIxLjk2MDkzLDIxLjk2MDk0IDAsMTIuMDQ1NyA5LjkxNTIzLDIxLjk2MDk0IDIxLjk2MDkzLDIxLjk2MDk0IDEyLjA0NTcsMCAyMS45NjA5NCwtOS45MTUyNCAyMS45NjA5NCwtMjEuOTYwOTQgMCwtMTIuMDQ1NyAtOS45MTUyNCwtMjEuOTYwOTQgLTIxLjk2MDk0LC0yMS45NjA5NCB6IG0gMCwxNCBjIDQuNDc5NTUsMCA3Ljk2MDk0LDMuNDgxMzkgNy45NjA5NCw3Ljk2MDk0IDAsNC40Nzk1NSAtMy40ODEzOSw3Ljk2MDk0IC03Ljk2MDk0LDcuOTYwOTQgLTQuNDc5NTQsMCAtNy45NjA5MywtMy40ODEzOSAtNy45NjA5MywtNy45NjA5NCAwLC00LjQ3OTU1IDMuNDgxMzksLTcuOTYwOTQgNy45NjA5MywtNy45NjA5NCB6IE0gMjg2LjE2MTM3LDc2Ljc5MTAwOCBBIDExLjA4MjA4OSwxMS4wODIwODkgMCAwIDEgMjc1LjA3OTI4LDg3Ljg3MzA5NyAxMS4wODIwODksMTEuMDgyMDg5IDAgMCAxIDI2My45OTcyLDc2Ljc5MTAwOCAxMS4wODIwODksMTEuMDgyMDg5IDAgMCAxIDI3NS4wNzkyOCw2NS43MDg5MTkgMTEuMDgyMDg5LDExLjA4MjA4OSAwIDAgMSAyODYuMTYxMzcsNzYuNzkxMDA4IFogbSAwLC0zMy4xNDU0MzUgYSAxMS4wODIwODksMTEuMDgyMDg5IDAgMCAxIC0xMS4wODIwOSwxMS4wODIwODkgMTEuMDgyMDg5LDExLjA4MjA4OSAwIDAgMSAtMTEuMDgyMDgsLTExLjA4MjA4OSAxMS4wODIwODksMTEuMDgyMDg5IDAgMCAxIDExLjA4MjA4LC0xMS4wODIwOSAxMS4wODIwODksMTEuMDgyMDg5IDAgMCAxIDExLjA4MjA5LDExLjA4MjA5IHogbSAwLC05Mi40NjgyMjQgYSAxMS4wODIwODksMTEuMDgyMDg5IDAgMCAxIC0xMS4wODIwOSwxMS4wODIwOSAxMS4wODIwODksMTEuMDgyMDg5IDAgMCAxIC0xMS4wODIwOCwtMTEuMDgyMDkgMTEuMDgyMDg5LDExLjA4MjA4OSAwIDAgMSAxMS4wODIwOCwtMTEuMDgyMDg5IDExLjA4MjA4OSwxMS4wODIwODkgMCAwIDEgMTEuMDgyMDksMTEuMDgyMDg5IHogbSAtNDQuMjEzNjIsMzIuNTU3NzE2IGEgMTEuMDgyMDg5LDExLjA4MjA4OSAwIDAgMSAtMTEuMDgyMDksMTEuMDgyMDg5OSAxMS4wODIwODksMTEuMDgyMDg5IDAgMCAxIC0xMS4wODIwOSwtMTEuMDgyMDg5OSAxMS4wODIwODksMTEuMDgyMDg5IDAgMCAxIDExLjA4MjA5LC0xMS4wODIwODkgMTEuMDgyMDg5LDExLjA4MjA4OSAwIDAgMSAxMS4wODIwOSwxMS4wODIwODkgeiBtIDAsOTIuNTM1NDQzIGEgMTEuMDgyMDg5LDExLjA4MjA4OSAwIDAgMSAtMTEuMDgyMDksMTEuMDgyMDg5IDExLjA4MjA4OSwxMS4wODIwODkgMCAwIDEgLTExLjA4MjA5LC0xMS4wODIwODkgMTEuMDgyMDg5LDExLjA4MjA4OSAwIDAgMSAxMS4wODIwOSwtMTEuMDgyMDkgMTEuMDgyMDg5LDExLjA4MjA4OSAwIDAgMSAxMS4wODIwOSwxMS4wODIwOSB6IG0gMCwzMi44ODIzMTIgYSAxMS4wODIwODksMTEuMDgyMDg5IDAgMCAxIC0xMS4wODIwOSwxMS4wODIwOSAxMS4wODIwODksMTEuMDgyMDg5IDAgMCAxIC0xMS4wODIwOSwtMTEuMDgyMDkgMTEuMDgyMDg5LDExLjA4MjA4OSAwIDAgMSAxMS4wODIwOSwtMTEuMDgyMDkzIDExLjA4MjA4OSwxMS4wODIwODkgMCAwIDEgMTEuMDgyMDksMTEuMDgyMDkzIHogbSAzMy4xMzIzMywtMTM2LjU4ODM2NyBhIDEwLjUsMTAuNSAwIDAgMCAtMTAuNSwxMC41IHYgMjguOTk0MTQxIGEgMTAuNSwxMC41IDAgMCAwIDEwLjUsMTAuNSAxMC41LDEwLjUgMCAwIDAgMTAuNSwtMTAuNSB2IC0yOC45OTQxNDEgYSAxMC41LDEwLjUgMCAwIDAgLTEwLjUsLTEwLjUgeiBtIC04ZS00LDEwLjUwMDc1OSBWIDEyLjA1OTIyOSBNIDIzMC44NjUyMyw1LjI0MDIzNDQgYSAxMC41LDEwLjUgMCAwIDAgLTEwLjUsMTAuNDk5OTk5NiB2IDI4Ljk5NDE0MSBhIDEwLjUsMTAuNSAwIDAgMCAxMC41LDEwLjUgMTAuNSwxMC41IDAgMCAwIDEwLjUsLTEwLjUgViAxNS43NDAyMzQgYSAxMC41LDEwLjUgMCAwIDAgLTEwLjUsLTEwLjQ5OTk5OTYgeiBtIDQuMmUtNCwxMC40OTk0MzA2IHYgMjguOTk0MDE3IiBzdHlsZT0iY29sb3I6IzAwMDAwMDtvcGFjaXR5OjAuOTk7ZmlsbDojNTk4NmYyO2ZpbGwtb3BhY2l0eToxO3N0cm9rZS1saW5lY2FwOnJvdW5kO3N0cm9rZS1saW5lam9pbjpyb3VuZDstaW5rc2NhcGUtc3Ryb2tlOm5vbmUiIGlkPSJwYXRoMTg0MC04Ii8+JiN4YTsgIDwvZz4mI3hhOzwvc3ZnPg==;" vertex="1" parent="E62bnQLQM5UrplGOeL8i-59">
          <mxGeometry x="6" y="9" width="31.71428571428571" height="36" as="geometry" />
        </mxCell>
        <mxCell id="E62bnQLQM5UrplGOeL8i-65" value="" style="group" vertex="1" connectable="0" parent="E62bnQLQM5UrplGOeL8i-52">
          <mxGeometry x="170" y="20" width="220" height="80" as="geometry" />
        </mxCell>
        <mxCell id="E62bnQLQM5UrplGOeL8i-69" value="" style="group" vertex="1" connectable="0" parent="E62bnQLQM5UrplGOeL8i-65">
          <mxGeometry width="220" height="80" as="geometry" />
        </mxCell>
        <mxCell id="E62bnQLQM5UrplGOeL8i-66" value="Summarize" style="strokeColor=#dddddd;shadow=1;strokeWidth=1;rounded=1;absoluteArcSize=1;arcSize=2;" vertex="1" parent="E62bnQLQM5UrplGOeL8i-69">
          <mxGeometry width="220" height="80" as="geometry" />
        </mxCell>
        <mxCell id="E62bnQLQM5UrplGOeL8i-67" value="Vertex AI" style="sketch=0;html=1;verticalAlign=top;labelPosition=center;verticalLabelPosition=bottom;align=center;spacingTop=-6;fontSize=11;fontStyle=1;fontColor=#999999;shape=image;aspect=fixed;imageAspect=0;image=data:image/svg+xml,PHN2ZyB4bWxucz0iaHR0cDovL3d3dy53My5vcmcvMjAwMC9zdmciIGlkPSJzdmc1IiB2ZXJzaW9uPSIxLjEiIHZpZXdCb3g9IjAgMCAyMzkuNzA4MjUgMjc0Ljg2MzI4IiBoZWlnaHQ9IjI3NC44NjMyOG1tIiB3aWR0aD0iMjM5LjcwODI1bW0iPiYjeGE7ICAmI3hhOyAgPGRlZnMgaWQ9ImRlZnMyIi8+JiN4YTsgIDxnIHRyYW5zZm9ybT0idHJhbnNsYXRlKC02Ni42ODYzNjEsNjAuMjU5NzY2KSIgaWQ9ImxheWVyMSI+JiN4YTsgICAgPGcgc3R5bGU9Im9wYWNpdHk6MC45OSIgaWQ9InBhdGg4NjkiLz4mI3hhOyAgICA8ZyBzdHlsZT0ib3BhY2l0eTowLjk5IiBpZD0icGF0aDg2OS0yIi8+JiN4YTsgICAgPGcgc3R5bGU9Im9wYWNpdHk6MC45OSIgaWQ9InBhdGg4NjktMyIvPiYjeGE7ICAgIDxnIHN0eWxlPSJvcGFjaXR5OjAuOTkiIGlkPSJwYXRoODY5LTEiLz4mI3hhOyAgICA8ZyBzdHlsZT0ib3BhY2l0eTowLjk5IiBpZD0icGF0aDg2OS04Ii8+JiN4YTsgICAgPGcgc3R5bGU9Im9wYWNpdHk6MC45OSIgaWQ9InBhdGg4NzEiPiYjeGE7ICAgICAgPHBhdGggaWQ9InBhdGgzMzU3IiBkPSJtIDc3LjE4Njc3NSwxMTAuODgyNTIgOTQuMjM5Njk1LDY5Ljc0NTc1IiBzdHlsZT0iY29sb3I6IzAwMDAwMDtmaWxsOiMwMDgwMDA7c3Ryb2tlLXdpZHRoOjIxO3N0cm9rZS1saW5lY2FwOnJvdW5kOy1pbmtzY2FwZS1zdHJva2U6bm9uZSIvPiYjeGE7ICAgIDwvZz4mI3hhOyAgICA8ZyBzdHlsZT0ib3BhY2l0eTowLjk5IiBpZD0icGF0aDg3MyIvPiYjeGE7ICAgIDxwYXRoIGQ9Im0gMTUzLjA4MTIsMTA5LjAzNTY4IGMgMCw2LjEyMDQ3IC00Ljk2MTYyLDExLjA4MjA5IC0xMS4wODIwOSwxMS4wODIwOSAtNi4xMjA0NywwIC0xMS4wODIwOCwtNC45NjE2MiAtMTEuMDgyMDgsLTExLjA4MjA5IDAsLTYuMTIwNDYgNC45NjE2MiwtMTEuMDgyMDgyIDExLjA4MjA4LC0xMS4wODIwODcgNi4xMjA0NywtMTBlLTcgMTEuMDgyMDksNC45NjE2MTcgMTEuMDgyMDksMTEuMDgyMDg3IHogbSAwLC05Mi41MTMzODEgYyAwLDYuMTIwNDY5IC00Ljk2MTYyLDExLjA4MjA5IC0xMS4wODIwOSwxMS4wODIwODkgLTYuMTIwNDcsLTVlLTYgLTExLjA4MjA4LC00Ljk2MTYyNCAtMTEuMDgyMDgsLTExLjA4MjA4OSAwLC02LjEyMDQ2NSA0Ljk2MTYxLC0xMS4wODIwODQ2IDExLjA4MjA4LC0xMS4wODIwODk2IDYuMTIwNDcsLTZlLTcgMTEuMDgyMDksNC45NjE2MjA2IDExLjA4MjA5LDExLjA4MjA4OTYgeiBtIDAsLTMyLjkyMTY4MyBjIDAsNi4xMjA0NjkgLTQuOTYxNjIsMTEuMDgyMDkwNSAtMTEuMDgyMDksMTEuMDgyMDg5OSAtNi4xMjA0NywtNWUtNiAtMTEuMDgyMDgsLTQuOTYxNjIzOSAtMTEuMDgyMDgsLTExLjA4MjA4OTkgMCwtNi4xMjA0NjUgNC45NjE2MSwtMTEuMDgyMDg0IDExLjA4MjA4LC0xMS4wODIwODkgNi4xMjA0NywtMTBlLTcgMTEuMDgyMDksNC45NjE2MiAxMS4wODIwOSwxMS4wODIwODkgeiBNIDEwOC43NDE4MSw3Ni43MTgwMSBjIDAsNi4xMjA0NjkgLTQuOTYxNjIsMTEuMDgyMDg5IC0xMS4wODIwODksMTEuMDgyMDg5IC02LjEyMDQ2OSwwIC0xMS4wODIwODksLTQuOTYxNjIgLTExLjA4MjA4OSwtMTEuMDgyMDg5IDAsLTYuMTIwNDY5IDQuOTYxNjIsLTExLjA4MjA4OSAxMS4wODIwODksLTExLjA4MjA4OSA2LjEyMDQ2OSwwIDExLjA4MjA4OSw0Ljk2MTYyIDExLjA4MjA4OSwxMS4wODIwODkgeiBtIDAsLTMyLjY4MDYyNiBjIDAsNi4xMjA0NjkgLTQuOTYxNjIsMTEuMDgyMDg5IC0xMS4wODIwODksMTEuMDgyMDg5IC02LjEyMDQ2OSwwIC0xMS4wODIwODksLTQuOTYxNjIgLTExLjA4MjA4OSwtMTEuMDgyMDg5IDAsLTYuMTIwNDY5IDQuOTYxNjIsLTExLjA4MjA4OSAxMS4wODIwODksLTExLjA4MjA4OSA2LjEyMDQ2OSwwIDExLjA4MjA4OSw0Ljk2MTYyIDExLjA4MjA4OSwxMS4wODIwODkgeiBtIDAsLTMyLjY3ODI0MyBjIDAsNi4xMjA0NjkgLTQuOTYxNjIsMTEuMDgyMDkgLTExLjA4MjA4OSwxMS4wODIwOSAtNi4xMjA0NjksMCAtMTEuMDgyMDksLTQuOTYxNjIxIC0xMS4wODIwODksLTExLjA4MjA5IDAsLTYuMTIwNDY4OCA0Ljk2MTYyLC0xMS4wODIwODkwNyAxMS4wODIwODksLTExLjA4MjA4OTA3IDYuMTIwNDY5LDAgMTEuMDgyMDg5LDQuOTYxNjIwMjcgMTEuMDgyMDg5LDExLjA4MjA4OTA3IHogTSAxNDIsMzcuNzc5Mjk3IGMgLTUuNzk4OTksMCAtMTAuNSw0LjcwMTAxIC0xMC41LDEwLjUgdiAyOC45OTQxNCBjIDAsNS43OTg5OSA0LjcwMTAxLDEwLjUgMTAuNSwxMC41IDUuNzk4OTksMCAxMC41LC00LjcwMTAxIDEwLjUsLTEwLjUgdiAtMjguOTk0MTQgYyAwLC01Ljc5ODk5IC00LjcwMTAxLC0xMC41IC0xMC41LC0xMC41IHogbSAtOC45ZS00LDEwLjUwMDM3NyBWIDc3LjI3MzY5MSBNIDk3LjY2MDE1NiwtNjAuMjU5NzY2IGMgLTUuNzk4OTksMCAtMTAuNSw0LjcwMTAxIC0xMC41LDEwLjUgdiAyOC45OTQxNDEgYyAwLDUuNzk4OTkgNC43MDEwMSwxMC41IDEwLjUsMTAuNSA1Ljc5ODk5NCwyZS02IDEwLjUwMDAwNCwtNC43MDEwMDkgMTAuNTAwMDA0LC0xMC41IHYgLTI4Ljk5NDE0MSBjIDAsLTUuNzk4OTkxIC00LjcwMTAxLC0xMC41MDAwMDIgLTEwLjUwMDAwNCwtMTAuNSB6IG0gLTQuMzVlLTQsMTAuNDk5NzY1IHYgMjguOTk0MDE3IE0gNzUuNjM0NzY2LDEwMC40OTgwNSBjIC0yLjc1NDE5MSwwLjQxMTQ4IC01LjIzMjExOSwxLjkwMDIxIC02Ljg4ODY3Miw0LjEzODY3IC0zLjQ0ODg3NCw0LjY2MTU3IC0yLjQ2NjAyNCwxMS4yMzYzNSAyLjE5NTMxMiwxNC42ODU1NSBsIDk0LjIzODI4NCw2OS43NDYwOSAxMi43ODYwNCwtMTYuNjY2NTkgLTk0LjUzMjEzNiwtNjkuOTU4NDEgYyAtMi4yMzg2OTksLTEuNjU3MTYgLTUuMDQ0MTAxLC0yLjM1NjkzIC03Ljc5ODgyOCwtMS45NDUzMSB6IiBzdHlsZT0iY29sb3I6IzAwMDAwMDtvcGFjaXR5OjAuOTk7ZmlsbDojYjVjYmY5O2ZpbGwtb3BhY2l0eToxO3N0cm9rZS13aWR0aDoyMTtzdHJva2UtbGluZWNhcDpyb3VuZDtzdHJva2UtbGluZWpvaW46cm91bmQ7LWlua3NjYXBlLXN0cm9rZTpub25lIiBpZD0icGF0aDE4NDAtNSIvPiYjeGE7ICAgIDxwYXRoIGQ9Im0gMTk3LjM5Mjc2LDE0MS45NzM2NiBjIDAsNi4xMjA0NyAtNC45NjE2MiwxMS4wODIwOSAtMTEuMDgyMDksMTEuMDgyMDkgLTYuMTIwNDcsMCAtMTEuMDgyMDksLTQuOTYxNjIgLTExLjA4MjA5LC0xMS4wODIwOSAwLC02LjEyMDQ3IDQuOTYxNjIsLTExLjA4MjA5IDExLjA4MjA5LC0xMS4wODIwOSA2LjEyMDQ3LDAgMTEuMDgyMDksNC45NjE2MiAxMS4wODIwOSwxMS4wODIwOSB6IG0gMCwtOTIuNzI1NTg2IGMgMCw2LjEyMDQ2OSAtNC45NjE2MiwxMS4wODIwOSAtMTEuMDgyMDksMTEuMDgyMDg5IC02LjEyMDQ3LDFlLTYgLTExLjA4MjA5LC00Ljk2MTYyIC0xMS4wODIwOSwtMTEuMDgyMDg5IDAsLTYuMTIwNDcgNC45NjE2MiwtMTEuMDgyMDkxIDExLjA4MjA5LC0xMS4wODIwOSA2LjEyMDQ3LC0xZS02IDExLjA4MjA5LDQuOTYxNjIgMTEuMDgyMDksMTEuMDgyMDkgeiBtIDAsLTMyLjg1NDQ1OCBjIDAsNi4xMjA0NjkgLTQuOTYxNjIsMTEuMDgyMDkgLTExLjA4MjA5LDExLjA4MjA4OSAtNi4xMjA0NywxMGUtNyAtMTEuMDgyMDksLTQuOTYxNjIgLTExLjA4MjA5LC0xMS4wODIwODkgMCwtNi4xMjA0NjkgNC45NjE2MiwtMTEuMDgyMDkwMyAxMS4wODIwOSwtMTEuMDgyMDg5NyA2LjEyMDQ3LC02ZS03IDExLjA4MjA5LDQuOTYxNjIwNyAxMS4wODIwOSwxMS4wODIwODk3IHogbSAxMDAuMDI5MTEsODQuMDA2Nzc0IGMgLTIuNzU1MTcsLTAuNDA1MDA0IC01LjU1ODM4LDAuMzAxMDcgLTcuNzkyOTYsMS45NjI4OSBsIC05NC43NDYxLDcwLjQzNzUgMTIuNTI5MywxNi44NTM1MiA5NC43NDYwOSwtNzAuNDM3NSBjIDQuNjU0MTIsLTMuNDU5NzggNS42MjIxNSwtMTAuMDM3NDggMi4xNjIxMSwtMTQuNjkxNDEgLTEuNjYxMzYsLTIuMjM1NTMgLTQuMTQyODcsLTMuNzE5MzcgLTYuODk4NDQsLTQuMTI1IHogTSAxODYuMzEwNTUsNzAuODY3MTg3IGMgLTUuNzk4OTksMCAtMTAuNSw0LjcwMTAxIC0xMC41LDEwLjUgdiAyOC45OTQxNDMgYyAwLDUuNzk4OTkgNC43MDEwMSwxMC41IDEwLjUsMTAuNSA1Ljc5ODk5LDAgMTAuNSwtNC43MDEwMSAxMC41LC0xMC41IFYgODEuMzY3MTg3IGMgMCwtNS43OTg5OSAtNC43MDEwMSwtMTAuNSAtMTAuNSwtMTAuNSB6IG0gMS4yZS00LDEwLjUwMDgyNyB2IDI4Ljk5NDAxNiIgc3R5bGU9ImNvbG9yOiMwMDAwMDA7b3BhY2l0eTowLjk5O2ZpbGw6Izc2OWVmNTtmaWxsLW9wYWNpdHk6MTtzdHJva2Utd2lkdGg6MjE7c3Ryb2tlLWxpbmVjYXA6cm91bmQ7c3Ryb2tlLWxpbmVqb2luOnJvdW5kOy1pbmtzY2FwZS1zdHJva2U6bm9uZSIgaWQ9InBhdGgxODQwLTMiLz4mI3hhOyAgICA8cGF0aCBkPSJtIDE4Ni4zNDU3LDE3MC42ODE2NCBjIC0xMi4wNDU3LDAgLTIxLjk2MDkzLDkuOTE1MjQgLTIxLjk2MDkzLDIxLjk2MDk0IDAsMTIuMDQ1NyA5LjkxNTIzLDIxLjk2MDk0IDIxLjk2MDkzLDIxLjk2MDk0IDEyLjA0NTcsMCAyMS45NjA5NCwtOS45MTUyNCAyMS45NjA5NCwtMjEuOTYwOTQgMCwtMTIuMDQ1NyAtOS45MTUyNCwtMjEuOTYwOTQgLTIxLjk2MDk0LC0yMS45NjA5NCB6IG0gMCwxNCBjIDQuNDc5NTUsMCA3Ljk2MDk0LDMuNDgxMzkgNy45NjA5NCw3Ljk2MDk0IDAsNC40Nzk1NSAtMy40ODEzOSw3Ljk2MDk0IC03Ljk2MDk0LDcuOTYwOTQgLTQuNDc5NTQsMCAtNy45NjA5MywtMy40ODEzOSAtNy45NjA5MywtNy45NjA5NCAwLC00LjQ3OTU1IDMuNDgxMzksLTcuOTYwOTQgNy45NjA5MywtNy45NjA5NCB6IE0gMjg2LjE2MTM3LDc2Ljc5MTAwOCBBIDExLjA4MjA4OSwxMS4wODIwODkgMCAwIDEgMjc1LjA3OTI4LDg3Ljg3MzA5NyAxMS4wODIwODksMTEuMDgyMDg5IDAgMCAxIDI2My45OTcyLDc2Ljc5MTAwOCAxMS4wODIwODksMTEuMDgyMDg5IDAgMCAxIDI3NS4wNzkyOCw2NS43MDg5MTkgMTEuMDgyMDg5LDExLjA4MjA4OSAwIDAgMSAyODYuMTYxMzcsNzYuNzkxMDA4IFogbSAwLC0zMy4xNDU0MzUgYSAxMS4wODIwODksMTEuMDgyMDg5IDAgMCAxIC0xMS4wODIwOSwxMS4wODIwODkgMTEuMDgyMDg5LDExLjA4MjA4OSAwIDAgMSAtMTEuMDgyMDgsLTExLjA4MjA4OSAxMS4wODIwODksMTEuMDgyMDg5IDAgMCAxIDExLjA4MjA4LC0xMS4wODIwOSAxMS4wODIwODksMTEuMDgyMDg5IDAgMCAxIDExLjA4MjA5LDExLjA4MjA5IHogbSAwLC05Mi40NjgyMjQgYSAxMS4wODIwODksMTEuMDgyMDg5IDAgMCAxIC0xMS4wODIwOSwxMS4wODIwOSAxMS4wODIwODksMTEuMDgyMDg5IDAgMCAxIC0xMS4wODIwOCwtMTEuMDgyMDkgMTEuMDgyMDg5LDExLjA4MjA4OSAwIDAgMSAxMS4wODIwOCwtMTEuMDgyMDg5IDExLjA4MjA4OSwxMS4wODIwODkgMCAwIDEgMTEuMDgyMDksMTEuMDgyMDg5IHogbSAtNDQuMjEzNjIsMzIuNTU3NzE2IGEgMTEuMDgyMDg5LDExLjA4MjA4OSAwIDAgMSAtMTEuMDgyMDksMTEuMDgyMDg5OSAxMS4wODIwODksMTEuMDgyMDg5IDAgMCAxIC0xMS4wODIwOSwtMTEuMDgyMDg5OSAxMS4wODIwODksMTEuMDgyMDg5IDAgMCAxIDExLjA4MjA5LC0xMS4wODIwODkgMTEuMDgyMDg5LDExLjA4MjA4OSAwIDAgMSAxMS4wODIwOSwxMS4wODIwODkgeiBtIDAsOTIuNTM1NDQzIGEgMTEuMDgyMDg5LDExLjA4MjA4OSAwIDAgMSAtMTEuMDgyMDksMTEuMDgyMDg5IDExLjA4MjA4OSwxMS4wODIwODkgMCAwIDEgLTExLjA4MjA5LC0xMS4wODIwODkgMTEuMDgyMDg5LDExLjA4MjA4OSAwIDAgMSAxMS4wODIwOSwtMTEuMDgyMDkgMTEuMDgyMDg5LDExLjA4MjA4OSAwIDAgMSAxMS4wODIwOSwxMS4wODIwOSB6IG0gMCwzMi44ODIzMTIgYSAxMS4wODIwODksMTEuMDgyMDg5IDAgMCAxIC0xMS4wODIwOSwxMS4wODIwOSAxMS4wODIwODksMTEuMDgyMDg5IDAgMCAxIC0xMS4wODIwOSwtMTEuMDgyMDkgMTEuMDgyMDg5LDExLjA4MjA4OSAwIDAgMSAxMS4wODIwOSwtMTEuMDgyMDkzIDExLjA4MjA4OSwxMS4wODIwODkgMCAwIDEgMTEuMDgyMDksMTEuMDgyMDkzIHogbSAzMy4xMzIzMywtMTM2LjU4ODM2NyBhIDEwLjUsMTAuNSAwIDAgMCAtMTAuNSwxMC41IHYgMjguOTk0MTQxIGEgMTAuNSwxMC41IDAgMCAwIDEwLjUsMTAuNSAxMC41LDEwLjUgMCAwIDAgMTAuNSwtMTAuNSB2IC0yOC45OTQxNDEgYSAxMC41LDEwLjUgMCAwIDAgLTEwLjUsLTEwLjUgeiBtIC04ZS00LDEwLjUwMDc1OSBWIDEyLjA1OTIyOSBNIDIzMC44NjUyMyw1LjI0MDIzNDQgYSAxMC41LDEwLjUgMCAwIDAgLTEwLjUsMTAuNDk5OTk5NiB2IDI4Ljk5NDE0MSBhIDEwLjUsMTAuNSAwIDAgMCAxMC41LDEwLjUgMTAuNSwxMC41IDAgMCAwIDEwLjUsLTEwLjUgViAxNS43NDAyMzQgYSAxMC41LDEwLjUgMCAwIDAgLTEwLjUsLTEwLjQ5OTk5OTYgeiBtIDQuMmUtNCwxMC40OTk0MzA2IHYgMjguOTk0MDE3IiBzdHlsZT0iY29sb3I6IzAwMDAwMDtvcGFjaXR5OjAuOTk7ZmlsbDojNTk4NmYyO2ZpbGwtb3BhY2l0eToxO3N0cm9rZS1saW5lY2FwOnJvdW5kO3N0cm9rZS1saW5lam9pbjpyb3VuZDstaW5rc2NhcGUtc3Ryb2tlOm5vbmUiIGlkPSJwYXRoMTg0MC04Ii8+JiN4YTsgIDwvZz4mI3hhOzwvc3ZnPg==;" vertex="1" parent="E62bnQLQM5UrplGOeL8i-69">
          <mxGeometry x="6" y="9" width="31.71428571428571" height="36" as="geometry" />
        </mxCell>
        <mxCell id="E62bnQLQM5UrplGOeL8i-70" value="" style="group" vertex="1" connectable="0" parent="E62bnQLQM5UrplGOeL8i-52">
          <mxGeometry x="170" y="130" width="220" height="80" as="geometry" />
        </mxCell>
        <mxCell id="E62bnQLQM5UrplGOeL8i-71" value="" style="group" vertex="1" connectable="0" parent="E62bnQLQM5UrplGOeL8i-70">
          <mxGeometry width="220" height="80" as="geometry" />
        </mxCell>
        <mxCell id="E62bnQLQM5UrplGOeL8i-72" value="Explain as 5 &#xa;years old" style="strokeColor=#dddddd;shadow=1;strokeWidth=1;rounded=1;absoluteArcSize=1;arcSize=2;" vertex="1" parent="E62bnQLQM5UrplGOeL8i-71">
          <mxGeometry width="220" height="80" as="geometry" />
        </mxCell>
        <mxCell id="E62bnQLQM5UrplGOeL8i-73" value="Vertex AI" style="sketch=0;html=1;verticalAlign=top;labelPosition=center;verticalLabelPosition=bottom;align=center;spacingTop=-6;fontSize=11;fontStyle=1;fontColor=#999999;shape=image;aspect=fixed;imageAspect=0;image=data:image/svg+xml,PHN2ZyB4bWxucz0iaHR0cDovL3d3dy53My5vcmcvMjAwMC9zdmciIGlkPSJzdmc1IiB2ZXJzaW9uPSIxLjEiIHZpZXdCb3g9IjAgMCAyMzkuNzA4MjUgMjc0Ljg2MzI4IiBoZWlnaHQ9IjI3NC44NjMyOG1tIiB3aWR0aD0iMjM5LjcwODI1bW0iPiYjeGE7ICAmI3hhOyAgPGRlZnMgaWQ9ImRlZnMyIi8+JiN4YTsgIDxnIHRyYW5zZm9ybT0idHJhbnNsYXRlKC02Ni42ODYzNjEsNjAuMjU5NzY2KSIgaWQ9ImxheWVyMSI+JiN4YTsgICAgPGcgc3R5bGU9Im9wYWNpdHk6MC45OSIgaWQ9InBhdGg4NjkiLz4mI3hhOyAgICA8ZyBzdHlsZT0ib3BhY2l0eTowLjk5IiBpZD0icGF0aDg2OS0yIi8+JiN4YTsgICAgPGcgc3R5bGU9Im9wYWNpdHk6MC45OSIgaWQ9InBhdGg4NjktMyIvPiYjeGE7ICAgIDxnIHN0eWxlPSJvcGFjaXR5OjAuOTkiIGlkPSJwYXRoODY5LTEiLz4mI3hhOyAgICA8ZyBzdHlsZT0ib3BhY2l0eTowLjk5IiBpZD0icGF0aDg2OS04Ii8+JiN4YTsgICAgPGcgc3R5bGU9Im9wYWNpdHk6MC45OSIgaWQ9InBhdGg4NzEiPiYjeGE7ICAgICAgPHBhdGggaWQ9InBhdGgzMzU3IiBkPSJtIDc3LjE4Njc3NSwxMTAuODgyNTIgOTQuMjM5Njk1LDY5Ljc0NTc1IiBzdHlsZT0iY29sb3I6IzAwMDAwMDtmaWxsOiMwMDgwMDA7c3Ryb2tlLXdpZHRoOjIxO3N0cm9rZS1saW5lY2FwOnJvdW5kOy1pbmtzY2FwZS1zdHJva2U6bm9uZSIvPiYjeGE7ICAgIDwvZz4mI3hhOyAgICA8ZyBzdHlsZT0ib3BhY2l0eTowLjk5IiBpZD0icGF0aDg3MyIvPiYjeGE7ICAgIDxwYXRoIGQ9Im0gMTUzLjA4MTIsMTA5LjAzNTY4IGMgMCw2LjEyMDQ3IC00Ljk2MTYyLDExLjA4MjA5IC0xMS4wODIwOSwxMS4wODIwOSAtNi4xMjA0NywwIC0xMS4wODIwOCwtNC45NjE2MiAtMTEuMDgyMDgsLTExLjA4MjA5IDAsLTYuMTIwNDYgNC45NjE2MiwtMTEuMDgyMDgyIDExLjA4MjA4LC0xMS4wODIwODcgNi4xMjA0NywtMTBlLTcgMTEuMDgyMDksNC45NjE2MTcgMTEuMDgyMDksMTEuMDgyMDg3IHogbSAwLC05Mi41MTMzODEgYyAwLDYuMTIwNDY5IC00Ljk2MTYyLDExLjA4MjA5IC0xMS4wODIwOSwxMS4wODIwODkgLTYuMTIwNDcsLTVlLTYgLTExLjA4MjA4LC00Ljk2MTYyNCAtMTEuMDgyMDgsLTExLjA4MjA4OSAwLC02LjEyMDQ2NSA0Ljk2MTYxLC0xMS4wODIwODQ2IDExLjA4MjA4LC0xMS4wODIwODk2IDYuMTIwNDcsLTZlLTcgMTEuMDgyMDksNC45NjE2MjA2IDExLjA4MjA5LDExLjA4MjA4OTYgeiBtIDAsLTMyLjkyMTY4MyBjIDAsNi4xMjA0NjkgLTQuOTYxNjIsMTEuMDgyMDkwNSAtMTEuMDgyMDksMTEuMDgyMDg5OSAtNi4xMjA0NywtNWUtNiAtMTEuMDgyMDgsLTQuOTYxNjIzOSAtMTEuMDgyMDgsLTExLjA4MjA4OTkgMCwtNi4xMjA0NjUgNC45NjE2MSwtMTEuMDgyMDg0IDExLjA4MjA4LC0xMS4wODIwODkgNi4xMjA0NywtMTBlLTcgMTEuMDgyMDksNC45NjE2MiAxMS4wODIwOSwxMS4wODIwODkgeiBNIDEwOC43NDE4MSw3Ni43MTgwMSBjIDAsNi4xMjA0NjkgLTQuOTYxNjIsMTEuMDgyMDg5IC0xMS4wODIwODksMTEuMDgyMDg5IC02LjEyMDQ2OSwwIC0xMS4wODIwODksLTQuOTYxNjIgLTExLjA4MjA4OSwtMTEuMDgyMDg5IDAsLTYuMTIwNDY5IDQuOTYxNjIsLTExLjA4MjA4OSAxMS4wODIwODksLTExLjA4MjA4OSA2LjEyMDQ2OSwwIDExLjA4MjA4OSw0Ljk2MTYyIDExLjA4MjA4OSwxMS4wODIwODkgeiBtIDAsLTMyLjY4MDYyNiBjIDAsNi4xMjA0NjkgLTQuOTYxNjIsMTEuMDgyMDg5IC0xMS4wODIwODksMTEuMDgyMDg5IC02LjEyMDQ2OSwwIC0xMS4wODIwODksLTQuOTYxNjIgLTExLjA4MjA4OSwtMTEuMDgyMDg5IDAsLTYuMTIwNDY5IDQuOTYxNjIsLTExLjA4MjA4OSAxMS4wODIwODksLTExLjA4MjA4OSA2LjEyMDQ2OSwwIDExLjA4MjA4OSw0Ljk2MTYyIDExLjA4MjA4OSwxMS4wODIwODkgeiBtIDAsLTMyLjY3ODI0MyBjIDAsNi4xMjA0NjkgLTQuOTYxNjIsMTEuMDgyMDkgLTExLjA4MjA4OSwxMS4wODIwOSAtNi4xMjA0NjksMCAtMTEuMDgyMDksLTQuOTYxNjIxIC0xMS4wODIwODksLTExLjA4MjA5IDAsLTYuMTIwNDY4OCA0Ljk2MTYyLC0xMS4wODIwODkwNyAxMS4wODIwODksLTExLjA4MjA4OTA3IDYuMTIwNDY5LDAgMTEuMDgyMDg5LDQuOTYxNjIwMjcgMTEuMDgyMDg5LDExLjA4MjA4OTA3IHogTSAxNDIsMzcuNzc5Mjk3IGMgLTUuNzk4OTksMCAtMTAuNSw0LjcwMTAxIC0xMC41LDEwLjUgdiAyOC45OTQxNCBjIDAsNS43OTg5OSA0LjcwMTAxLDEwLjUgMTAuNSwxMC41IDUuNzk4OTksMCAxMC41LC00LjcwMTAxIDEwLjUsLTEwLjUgdiAtMjguOTk0MTQgYyAwLC01Ljc5ODk5IC00LjcwMTAxLC0xMC41IC0xMC41LC0xMC41IHogbSAtOC45ZS00LDEwLjUwMDM3NyBWIDc3LjI3MzY5MSBNIDk3LjY2MDE1NiwtNjAuMjU5NzY2IGMgLTUuNzk4OTksMCAtMTAuNSw0LjcwMTAxIC0xMC41LDEwLjUgdiAyOC45OTQxNDEgYyAwLDUuNzk4OTkgNC43MDEwMSwxMC41IDEwLjUsMTAuNSA1Ljc5ODk5NCwyZS02IDEwLjUwMDAwNCwtNC43MDEwMDkgMTAuNTAwMDA0LC0xMC41IHYgLTI4Ljk5NDE0MSBjIDAsLTUuNzk4OTkxIC00LjcwMTAxLC0xMC41MDAwMDIgLTEwLjUwMDAwNCwtMTAuNSB6IG0gLTQuMzVlLTQsMTAuNDk5NzY1IHYgMjguOTk0MDE3IE0gNzUuNjM0NzY2LDEwMC40OTgwNSBjIC0yLjc1NDE5MSwwLjQxMTQ4IC01LjIzMjExOSwxLjkwMDIxIC02Ljg4ODY3Miw0LjEzODY3IC0zLjQ0ODg3NCw0LjY2MTU3IC0yLjQ2NjAyNCwxMS4yMzYzNSAyLjE5NTMxMiwxNC42ODU1NSBsIDk0LjIzODI4NCw2OS43NDYwOSAxMi43ODYwNCwtMTYuNjY2NTkgLTk0LjUzMjEzNiwtNjkuOTU4NDEgYyAtMi4yMzg2OTksLTEuNjU3MTYgLTUuMDQ0MTAxLC0yLjM1NjkzIC03Ljc5ODgyOCwtMS45NDUzMSB6IiBzdHlsZT0iY29sb3I6IzAwMDAwMDtvcGFjaXR5OjAuOTk7ZmlsbDojYjVjYmY5O2ZpbGwtb3BhY2l0eToxO3N0cm9rZS13aWR0aDoyMTtzdHJva2UtbGluZWNhcDpyb3VuZDtzdHJva2UtbGluZWpvaW46cm91bmQ7LWlua3NjYXBlLXN0cm9rZTpub25lIiBpZD0icGF0aDE4NDAtNSIvPiYjeGE7ICAgIDxwYXRoIGQ9Im0gMTk3LjM5Mjc2LDE0MS45NzM2NiBjIDAsNi4xMjA0NyAtNC45NjE2MiwxMS4wODIwOSAtMTEuMDgyMDksMTEuMDgyMDkgLTYuMTIwNDcsMCAtMTEuMDgyMDksLTQuOTYxNjIgLTExLjA4MjA5LC0xMS4wODIwOSAwLC02LjEyMDQ3IDQuOTYxNjIsLTExLjA4MjA5IDExLjA4MjA5LC0xMS4wODIwOSA2LjEyMDQ3LDAgMTEuMDgyMDksNC45NjE2MiAxMS4wODIwOSwxMS4wODIwOSB6IG0gMCwtOTIuNzI1NTg2IGMgMCw2LjEyMDQ2OSAtNC45NjE2MiwxMS4wODIwOSAtMTEuMDgyMDksMTEuMDgyMDg5IC02LjEyMDQ3LDFlLTYgLTExLjA4MjA5LC00Ljk2MTYyIC0xMS4wODIwOSwtMTEuMDgyMDg5IDAsLTYuMTIwNDcgNC45NjE2MiwtMTEuMDgyMDkxIDExLjA4MjA5LC0xMS4wODIwOSA2LjEyMDQ3LC0xZS02IDExLjA4MjA5LDQuOTYxNjIgMTEuMDgyMDksMTEuMDgyMDkgeiBtIDAsLTMyLjg1NDQ1OCBjIDAsNi4xMjA0NjkgLTQuOTYxNjIsMTEuMDgyMDkgLTExLjA4MjA5LDExLjA4MjA4OSAtNi4xMjA0NywxMGUtNyAtMTEuMDgyMDksLTQuOTYxNjIgLTExLjA4MjA5LC0xMS4wODIwODkgMCwtNi4xMjA0NjkgNC45NjE2MiwtMTEuMDgyMDkwMyAxMS4wODIwOSwtMTEuMDgyMDg5NyA2LjEyMDQ3LC02ZS03IDExLjA4MjA5LDQuOTYxNjIwNyAxMS4wODIwOSwxMS4wODIwODk3IHogbSAxMDAuMDI5MTEsODQuMDA2Nzc0IGMgLTIuNzU1MTcsLTAuNDA1MDA0IC01LjU1ODM4LDAuMzAxMDcgLTcuNzkyOTYsMS45NjI4OSBsIC05NC43NDYxLDcwLjQzNzUgMTIuNTI5MywxNi44NTM1MiA5NC43NDYwOSwtNzAuNDM3NSBjIDQuNjU0MTIsLTMuNDU5NzggNS42MjIxNSwtMTAuMDM3NDggMi4xNjIxMSwtMTQuNjkxNDEgLTEuNjYxMzYsLTIuMjM1NTMgLTQuMTQyODcsLTMuNzE5MzcgLTYuODk4NDQsLTQuMTI1IHogTSAxODYuMzEwNTUsNzAuODY3MTg3IGMgLTUuNzk4OTksMCAtMTAuNSw0LjcwMTAxIC0xMC41LDEwLjUgdiAyOC45OTQxNDMgYyAwLDUuNzk4OTkgNC43MDEwMSwxMC41IDEwLjUsMTAuNSA1Ljc5ODk5LDAgMTAuNSwtNC43MDEwMSAxMC41LC0xMC41IFYgODEuMzY3MTg3IGMgMCwtNS43OTg5OSAtNC43MDEwMSwtMTAuNSAtMTAuNSwtMTAuNSB6IG0gMS4yZS00LDEwLjUwMDgyNyB2IDI4Ljk5NDAxNiIgc3R5bGU9ImNvbG9yOiMwMDAwMDA7b3BhY2l0eTowLjk5O2ZpbGw6Izc2OWVmNTtmaWxsLW9wYWNpdHk6MTtzdHJva2Utd2lkdGg6MjE7c3Ryb2tlLWxpbmVjYXA6cm91bmQ7c3Ryb2tlLWxpbmVqb2luOnJvdW5kOy1pbmtzY2FwZS1zdHJva2U6bm9uZSIgaWQ9InBhdGgxODQwLTMiLz4mI3hhOyAgICA8cGF0aCBkPSJtIDE4Ni4zNDU3LDE3MC42ODE2NCBjIC0xMi4wNDU3LDAgLTIxLjk2MDkzLDkuOTE1MjQgLTIxLjk2MDkzLDIxLjk2MDk0IDAsMTIuMDQ1NyA5LjkxNTIzLDIxLjk2MDk0IDIxLjk2MDkzLDIxLjk2MDk0IDEyLjA0NTcsMCAyMS45NjA5NCwtOS45MTUyNCAyMS45NjA5NCwtMjEuOTYwOTQgMCwtMTIuMDQ1NyAtOS45MTUyNCwtMjEuOTYwOTQgLTIxLjk2MDk0LC0yMS45NjA5NCB6IG0gMCwxNCBjIDQuNDc5NTUsMCA3Ljk2MDk0LDMuNDgxMzkgNy45NjA5NCw3Ljk2MDk0IDAsNC40Nzk1NSAtMy40ODEzOSw3Ljk2MDk0IC03Ljk2MDk0LDcuOTYwOTQgLTQuNDc5NTQsMCAtNy45NjA5MywtMy40ODEzOSAtNy45NjA5MywtNy45NjA5NCAwLC00LjQ3OTU1IDMuNDgxMzksLTcuOTYwOTQgNy45NjA5MywtNy45NjA5NCB6IE0gMjg2LjE2MTM3LDc2Ljc5MTAwOCBBIDExLjA4MjA4OSwxMS4wODIwODkgMCAwIDEgMjc1LjA3OTI4LDg3Ljg3MzA5NyAxMS4wODIwODksMTEuMDgyMDg5IDAgMCAxIDI2My45OTcyLDc2Ljc5MTAwOCAxMS4wODIwODksMTEuMDgyMDg5IDAgMCAxIDI3NS4wNzkyOCw2NS43MDg5MTkgMTEuMDgyMDg5LDExLjA4MjA4OSAwIDAgMSAyODYuMTYxMzcsNzYuNzkxMDA4IFogbSAwLC0zMy4xNDU0MzUgYSAxMS4wODIwODksMTEuMDgyMDg5IDAgMCAxIC0xMS4wODIwOSwxMS4wODIwODkgMTEuMDgyMDg5LDExLjA4MjA4OSAwIDAgMSAtMTEuMDgyMDgsLTExLjA4MjA4OSAxMS4wODIwODksMTEuMDgyMDg5IDAgMCAxIDExLjA4MjA4LC0xMS4wODIwOSAxMS4wODIwODksMTEuMDgyMDg5IDAgMCAxIDExLjA4MjA5LDExLjA4MjA5IHogbSAwLC05Mi40NjgyMjQgYSAxMS4wODIwODksMTEuMDgyMDg5IDAgMCAxIC0xMS4wODIwOSwxMS4wODIwOSAxMS4wODIwODksMTEuMDgyMDg5IDAgMCAxIC0xMS4wODIwOCwtMTEuMDgyMDkgMTEuMDgyMDg5LDExLjA4MjA4OSAwIDAgMSAxMS4wODIwOCwtMTEuMDgyMDg5IDExLjA4MjA4OSwxMS4wODIwODkgMCAwIDEgMTEuMDgyMDksMTEuMDgyMDg5IHogbSAtNDQuMjEzNjIsMzIuNTU3NzE2IGEgMTEuMDgyMDg5LDExLjA4MjA4OSAwIDAgMSAtMTEuMDgyMDksMTEuMDgyMDg5OSAxMS4wODIwODksMTEuMDgyMDg5IDAgMCAxIC0xMS4wODIwOSwtMTEuMDgyMDg5OSAxMS4wODIwODksMTEuMDgyMDg5IDAgMCAxIDExLjA4MjA5LC0xMS4wODIwODkgMTEuMDgyMDg5LDExLjA4MjA4OSAwIDAgMSAxMS4wODIwOSwxMS4wODIwODkgeiBtIDAsOTIuNTM1NDQzIGEgMTEuMDgyMDg5LDExLjA4MjA4OSAwIDAgMSAtMTEuMDgyMDksMTEuMDgyMDg5IDExLjA4MjA4OSwxMS4wODIwODkgMCAwIDEgLTExLjA4MjA5LC0xMS4wODIwODkgMTEuMDgyMDg5LDExLjA4MjA4OSAwIDAgMSAxMS4wODIwOSwtMTEuMDgyMDkgMTEuMDgyMDg5LDExLjA4MjA4OSAwIDAgMSAxMS4wODIwOSwxMS4wODIwOSB6IG0gMCwzMi44ODIzMTIgYSAxMS4wODIwODksMTEuMDgyMDg5IDAgMCAxIC0xMS4wODIwOSwxMS4wODIwOSAxMS4wODIwODksMTEuMDgyMDg5IDAgMCAxIC0xMS4wODIwOSwtMTEuMDgyMDkgMTEuMDgyMDg5LDExLjA4MjA4OSAwIDAgMSAxMS4wODIwOSwtMTEuMDgyMDkzIDExLjA4MjA4OSwxMS4wODIwODkgMCAwIDEgMTEuMDgyMDksMTEuMDgyMDkzIHogbSAzMy4xMzIzMywtMTM2LjU4ODM2NyBhIDEwLjUsMTAuNSAwIDAgMCAtMTAuNSwxMC41IHYgMjguOTk0MTQxIGEgMTAuNSwxMC41IDAgMCAwIDEwLjUsMTAuNSAxMC41LDEwLjUgMCAwIDAgMTAuNSwtMTAuNSB2IC0yOC45OTQxNDEgYSAxMC41LDEwLjUgMCAwIDAgLTEwLjUsLTEwLjUgeiBtIC04ZS00LDEwLjUwMDc1OSBWIDEyLjA1OTIyOSBNIDIzMC44NjUyMyw1LjI0MDIzNDQgYSAxMC41LDEwLjUgMCAwIDAgLTEwLjUsMTAuNDk5OTk5NiB2IDI4Ljk5NDE0MSBhIDEwLjUsMTAuNSAwIDAgMCAxMC41LDEwLjUgMTAuNSwxMC41IDAgMCAwIDEwLjUsLTEwLjUgViAxNS43NDAyMzQgYSAxMC41LDEwLjUgMCAwIDAgLTEwLjUsLTEwLjQ5OTk5OTYgeiBtIDQuMmUtNCwxMC40OTk0MzA2IHYgMjguOTk0MDE3IiBzdHlsZT0iY29sb3I6IzAwMDAwMDtvcGFjaXR5OjAuOTk7ZmlsbDojNTk4NmYyO2ZpbGwtb3BhY2l0eToxO3N0cm9rZS1saW5lY2FwOnJvdW5kO3N0cm9rZS1saW5lam9pbjpyb3VuZDstaW5rc2NhcGUtc3Ryb2tlOm5vbmUiIGlkPSJwYXRoMTg0MC04Ii8+JiN4YTsgIDwvZz4mI3hhOzwvc3ZnPg==;" vertex="1" parent="E62bnQLQM5UrplGOeL8i-71">
          <mxGeometry x="6" y="9" width="31.71428571428571" height="36" as="geometry" />
        </mxCell>
        <mxCell id="E62bnQLQM5UrplGOeL8i-74" value="" style="group" vertex="1" connectable="0" parent="E62bnQLQM5UrplGOeL8i-52">
          <mxGeometry x="170" y="240" width="220" height="80" as="geometry" />
        </mxCell>
        <mxCell id="E62bnQLQM5UrplGOeL8i-75" value="" style="group" vertex="1" connectable="0" parent="E62bnQLQM5UrplGOeL8i-74">
          <mxGeometry width="220" height="80" as="geometry" />
        </mxCell>
        <mxCell id="E62bnQLQM5UrplGOeL8i-76" value="Tanslate" style="strokeColor=#dddddd;shadow=1;strokeWidth=1;rounded=1;absoluteArcSize=1;arcSize=2;" vertex="1" parent="E62bnQLQM5UrplGOeL8i-75">
          <mxGeometry width="220" height="80" as="geometry" />
        </mxCell>
        <mxCell id="E62bnQLQM5UrplGOeL8i-54" value="" style="strokeColor=#dddddd;shadow=1;strokeWidth=1;rounded=1;absoluteArcSize=1;arcSize=2;" vertex="1" parent="E62bnQLQM5UrplGOeL8i-75">
          <mxGeometry width="60" height="60" as="geometry" />
        </mxCell>
        <mxCell id="E62bnQLQM5UrplGOeL8i-55" value="" style="editableCssRules=.*;html=1;fontColor=#999999;shape=image;verticalLabelPosition=middle;verticalAlign=middle;labelPosition=right;align=left;spacingLeft=20;part=1;points=[];imageAspect=0;image=data:image/svg+xml,PHN2ZyB4bWxucz0iaHR0cDovL3d3dy53My5vcmcvMjAwMC9zdmciIHhtbG5zOnY9Imh0dHBzOi8vdmVjdGEuaW8vbmFubyIgd2lkdGg9IjIwIiBoZWlnaHQ9IjE4IiB2aWV3Qm94PSIwIDAgMjAgMTgiPiYjeGE7CTxzdHlsZSB0eXBlPSJ0ZXh0L2NzcyI+JiN4YTsJLnN0MHtmaWxsOiM0Mjg1ZjQ7fSYjeGE7CS5zdDF7ZmlsbDojNjY5ZGY2O2ZpbGwtcnVsZTpldmVub2RkfSYjeGE7CTwvc3R5bGU+JiN4YTsJPHBhdGggY2xhc3M9InN0MCIgZD0iTTE1LjkxIDcuMmgtMS44MkwxMCAxOGgxLjgybDEtMi43aDQuMzJsMSAyLjdIMjB6bS0yLjM5IDYuM0wxNSA5LjZsMS40OCAzLjl6Ii8+JiN4YTsJPHBhdGggY2xhc3M9InN0MSIgZD0iTTEwLjc5IDExLjc3TDguNDggOS41MWgwYTE1LjYyIDE1LjYyIDAgMCAwIDMuNC01LjkxaDIuNjdWMS44SDguMThWMEg2LjM2djEuOEgwdjEuNzloMTAuMTVhMTQuMDYgMTQuMDYgMCAwIDEtMi44OCA0LjgyIDE0LjU1IDE0LjU1IDAgMCAxLTIuMS0zSDMuMzVhMTYgMTYgMCAwIDAgMi43MSA0LjFMMS40NCAxNGwxLjI5IDEuMyA0LjU0LTQuNSAyLjgzIDIuOHoiLz4mI3hhOzwvc3ZnPg==;" vertex="1" parent="E62bnQLQM5UrplGOeL8i-54">
          <mxGeometry width="30" height="27" relative="1" as="geometry">
            <mxPoint x="15" y="16" as="offset" />
          </mxGeometry>
        </mxCell>
        <mxCell id="E62bnQLQM5UrplGOeL8i-79" style="edgeStyle=orthogonalEdgeStyle;curved=1;rounded=0;orthogonalLoop=1;jettySize=auto;html=1;entryX=0;entryY=0.75;entryDx=0;entryDy=0;dashed=0;strokeColor=#4284F3;strokeWidth=2;align=center;verticalAlign=middle;fontFamily=Helvetica;fontSize=12;fontColor=default;labelBackgroundColor=default;startSize=4;endArrow=blockThin;endFill=1;endSize=4;" edge="1" parent="E62bnQLQM5UrplGOeL8i-52" source="E62bnQLQM5UrplGOeL8i-60" target="E62bnQLQM5UrplGOeL8i-67">
          <mxGeometry relative="1" as="geometry" />
        </mxCell>
        <mxCell id="E62bnQLQM5UrplGOeL8i-80" style="edgeStyle=orthogonalEdgeStyle;curved=1;rounded=0;orthogonalLoop=1;jettySize=auto;html=1;entryX=0;entryY=0.75;entryDx=0;entryDy=0;dashed=0;strokeColor=#4284F3;strokeWidth=2;align=center;verticalAlign=middle;fontFamily=Helvetica;fontSize=12;fontColor=default;labelBackgroundColor=default;startSize=4;endArrow=blockThin;endFill=1;endSize=4;" edge="1" parent="E62bnQLQM5UrplGOeL8i-52" source="E62bnQLQM5UrplGOeL8i-60" target="E62bnQLQM5UrplGOeL8i-73">
          <mxGeometry relative="1" as="geometry" />
        </mxCell>
        <mxCell id="E62bnQLQM5UrplGOeL8i-81" style="edgeStyle=orthogonalEdgeStyle;curved=1;rounded=0;orthogonalLoop=1;jettySize=auto;html=1;entryX=0;entryY=0.5;entryDx=0;entryDy=0;dashed=0;strokeColor=#4284F3;strokeWidth=2;align=center;verticalAlign=middle;fontFamily=Helvetica;fontSize=12;fontColor=default;labelBackgroundColor=default;startSize=4;endArrow=blockThin;endFill=1;endSize=4;" edge="1" parent="E62bnQLQM5UrplGOeL8i-52" source="E62bnQLQM5UrplGOeL8i-60" target="E62bnQLQM5UrplGOeL8i-54">
          <mxGeometry relative="1" as="geometry" />
        </mxCell>
        <mxCell id="E62bnQLQM5UrplGOeL8i-64" style="edgeStyle=orthogonalEdgeStyle;curved=1;rounded=0;orthogonalLoop=1;jettySize=auto;html=1;entryX=0;entryY=0.5;entryDx=0;entryDy=0;dashed=0;strokeColor=#4284F3;strokeWidth=2;align=center;verticalAlign=middle;fontFamily=Helvetica;fontSize=12;fontColor=default;labelBackgroundColor=default;startSize=4;endArrow=blockThin;endFill=1;endSize=4;" edge="1" parent="1" source="E62bnQLQM5UrplGOeL8i-15" target="E62bnQLQM5UrplGOeL8i-60">
          <mxGeometry relative="1" as="geometry" />
        </mxCell>
        <mxCell id="E62bnQLQM5UrplGOeL8i-82" style="edgeStyle=orthogonalEdgeStyle;curved=1;rounded=0;orthogonalLoop=1;jettySize=auto;html=1;entryX=0.5;entryY=0;entryDx=0;entryDy=0;dashed=0;strokeColor=#4284F3;strokeWidth=2;align=center;verticalAlign=middle;fontFamily=Helvetica;fontSize=12;fontColor=default;labelBackgroundColor=default;startSize=4;endArrow=blockThin;endFill=1;endSize=4;" edge="1" parent="1" source="E62bnQLQM5UrplGOeL8i-9" target="E62bnQLQM5UrplGOeL8i-60">
          <mxGeometry relative="1" as="geometry" />
        </mxCell>
        <mxCell id="E62bnQLQM5UrplGOeL8i-87" value="&lt;b&gt;Backend&lt;/b&gt;" style="fillColor=#fff2cc;strokeColor=#d6b656;shadow=0;fontSize=14;align=left;spacing=10;9E9E9E;verticalAlign=top;spacingTop=-4;fontStyle=0;spacingLeft=40;html=1;" vertex="1" parent="1">
          <mxGeometry x="920" y="590" width="290" height="331" as="geometry" />
        </mxCell>
        <mxCell id="E62bnQLQM5UrplGOeL8i-88" value="" style="shape=mxgraph.gcp2.google_cloud_platform;fillColor=#F6F6F6;strokeColor=none;shadow=0;gradientColor=none;" vertex="1" parent="E62bnQLQM5UrplGOeL8i-87">
          <mxGeometry width="23" height="20" relative="1" as="geometry">
            <mxPoint x="20" y="10" as="offset" />
          </mxGeometry>
        </mxCell>
        <mxCell id="E62bnQLQM5UrplGOeL8i-91" value="" style="strokeColor=#dddddd;shadow=1;strokeWidth=1;rounded=1;absoluteArcSize=1;arcSize=2;" vertex="1" parent="E62bnQLQM5UrplGOeL8i-87">
          <mxGeometry x="20" y="90" width="130" height="60" as="geometry" />
        </mxCell>
        <mxCell id="E62bnQLQM5UrplGOeL8i-92" value="Cloud&#xa;Functions" style="editableCssRules=.*;html=1;fontColor=#999999;shape=image;verticalLabelPosition=middle;verticalAlign=middle;labelPosition=right;align=left;spacingLeft=20;part=1;points=[];imageAspect=0;image=data:image/svg+xml,PHN2ZyB4bWxucz0iaHR0cDovL3d3dy53My5vcmcvMjAwMC9zdmciIHhtbG5zOnY9Imh0dHBzOi8vdmVjdGEuaW8vbmFubyIgd2lkdGg9IjIwIiBoZWlnaHQ9IjE5Ljk4OTk5OTc3MTExODE2NCIgdmlld0JveD0iMCAwIDIwIDE5Ljk4OTk5OTc3MTExODE2NCI+JiN4YTsJPHN0eWxlIHR5cGU9InRleHQvY3NzIj4mI3hhOwkuc3Qwe2ZpbGw6IzQyODVmNDt9JiN4YTsJLnN0MXtmaWxsOiM2NjlkZjY7fSYjeGE7CS5zdDJ7ZmlsbDojYWVjYmZhO30mI3hhOwk8L3N0eWxlPiYjeGE7CTxwYXRoIGNsYXNzPSJzdDEiIGQ9Ik0zIDMuOTlMMCA2LjQydjcuMTNsMyAyLjQ0eiIvPiYjeGE7CTxwYXRoIGNsYXNzPSJzdDAiIGQ9Ik0zIDMuOTlsLTMgNCAzLTJ6bS0zIDhsMyA0di0yeiIvPiYjeGE7CTxwYXRoIGNsYXNzPSJzdDIiIGQ9Ik0wIDE1Ljk5bDQgNCAyLTItNi02em0uMDEtOEw1Ljk5IDJsLTItMkwwIDMuOTl6Ii8+JiN4YTsJPHBhdGggY2xhc3M9InN0MSIgZD0iTTE3IDE2bDMtMi40MlY2LjQ0TDE3IDR6Ii8+JiN4YTsJPHBhdGggY2xhc3M9InN0MCIgZD0iTTE3IDE2bDMtNC0zIDJ6bTMtOGwtMy00djJ6Ii8+JiN4YTsJPGcgY2xhc3M9InN0MiI+JiN4YTsJCTxwYXRoIGQ9Ik0yMCA0bC00LTQtMiAyIDYgNnptLS4wMSA4bC01Ljk4IDUuOTkgMiAyTDIwIDE2eiIvPiYjeGE7CQk8Y2lyY2xlIGN4PSI2IiBjeT0iOS45OSIgcj0iMSIvPiYjeGE7CQk8Y2lyY2xlIGN4PSIxMCIgY3k9IjkuOTkiIHI9IjEiLz4mI3hhOwkJPGNpcmNsZSBjeD0iMTMuOTkiIGN5PSI5Ljk5IiByPSIxIi8+JiN4YTsJPC9nPiYjeGE7PC9zdmc+;" vertex="1" parent="E62bnQLQM5UrplGOeL8i-91">
          <mxGeometry width="30" height="24" relative="1" as="geometry">
            <mxPoint x="15" y="18" as="offset" />
          </mxGeometry>
        </mxCell>
        <mxCell id="E62bnQLQM5UrplGOeL8i-94" style="edgeStyle=orthogonalEdgeStyle;curved=1;rounded=0;orthogonalLoop=1;jettySize=auto;html=1;dashed=0;strokeColor=#4284F3;strokeWidth=2;align=center;verticalAlign=middle;fontFamily=Helvetica;fontSize=12;fontColor=default;labelBackgroundColor=default;startSize=4;endArrow=blockThin;endFill=1;endSize=4;" edge="1" parent="1" source="E62bnQLQM5UrplGOeL8i-72" target="E62bnQLQM5UrplGOeL8i-91">
          <mxGeometry relative="1" as="geometry" />
        </mxCell>
        <mxCell id="E62bnQLQM5UrplGOeL8i-95" style="edgeStyle=orthogonalEdgeStyle;curved=1;rounded=0;orthogonalLoop=1;jettySize=auto;html=1;dashed=0;strokeColor=#4284F3;strokeWidth=2;align=center;verticalAlign=middle;fontFamily=Helvetica;fontSize=12;fontColor=default;labelBackgroundColor=default;startSize=4;endArrow=blockThin;endFill=1;endSize=4;" edge="1" parent="1" source="E62bnQLQM5UrplGOeL8i-91" target="E62bnQLQM5UrplGOeL8i-1">
          <mxGeometry relative="1" as="geometry" />
        </mxCell>
      </root>
    </mxGraphModel>
  </diagram>
</mxfile>
